<svg width="206" height="175" viewBox="0 0 206 175" fill="none" xmlns="http://www.w3.org/2000/svg">
<path d="M7.25725 108.372C7.01785 108.389 6.80926 108.331 6.63147 108.2C6.47592 108.042 6.38963 107.844 6.37261 107.604L4.70537 84.1557C4.68664 83.8923 4.74399 83.6838 4.87742 83.5299C5.03308 83.3504 5.23061 83.2522 5.47 83.2351L15.3092 82.5356C17.8707 82.3534 19.8412 82.8269 21.2208 83.9559C22.6003 85.0849 23.3607 86.6429 23.502 88.6298C23.5973 89.9705 23.3653 91.1058 22.8058 92.0358C22.2703 92.9641 21.5981 93.6615 20.7891 94.1281C21.8303 94.5593 22.7355 95.2769 23.5047 96.2809C24.2738 97.2849 24.7069 98.4692 24.8039 99.8337C24.8992 101.174 24.6748 102.417 24.1307 103.563C23.6105 104.707 22.7749 105.644 21.6239 106.376C20.4728 107.107 19.0595 107.533 17.3837 107.652L7.25725 108.372ZM15.5263 93.203C17.0345 93.0958 18.1589 92.667 18.8995 91.9165C19.6641 91.1644 20.0021 90.1659 19.9136 88.9211C19.8268 87.7002 19.3654 86.7946 18.5295 86.2044C17.6935 85.6142 16.5095 85.3736 14.9773 85.4825L8.37001 85.9523L8.91895 93.6728L15.5263 93.203ZM16.7101 104.776C18.2182 104.669 19.3623 104.179 20.1424 103.305C20.9463 102.43 21.3032 101.358 21.213 100.089C21.1193 98.7724 20.6135 97.7497 19.6955 97.0209C18.7998 96.2666 17.5978 95.943 16.0896 96.0502L9.12321 96.5456L9.74364 105.272L16.7101 104.776ZM37.6251 106.573C34.9917 106.761 32.8921 106.164 31.3263 104.784C29.7844 103.401 28.8779 101.481 28.6068 99.022L28.4611 97.4804L28.3872 95.9338C28.3093 93.4851 28.9478 91.4668 30.3026 89.8787C31.6557 88.2667 33.6369 87.3679 36.2463 87.1823C38.8557 86.9968 40.9442 87.6062 42.5118 89.0106C44.0776 90.391 44.9952 92.2987 45.2646 94.7338C45.3073 94.9954 45.3558 95.5092 45.4103 96.2753C45.4648 97.0414 45.4894 97.5569 45.4842 97.822C45.5637 100.295 44.9261 102.325 43.5713 103.913C42.2405 105.499 40.2584 106.386 37.6251 106.573ZM37.4285 103.808C38.9367 103.701 40.0876 103.138 40.8814 102.119C41.699 101.099 42.08 99.6881 42.0241 97.8875C42.031 97.6464 42.0107 97.1907 41.963 96.5204C41.9153 95.8501 41.871 95.3961 41.8301 95.1584C41.6306 93.3681 41.0539 92.0256 40.1001 91.131C39.1702 90.2347 37.9511 89.8401 36.4429 89.9474C34.9347 90.0546 33.7718 90.6185 32.9541 91.6391C32.1364 92.6596 31.7675 94.0693 31.8473 95.8682L31.9084 97.2353L32.0413 98.5973C32.2169 100.389 32.7815 101.733 33.7354 102.627C34.6892 103.522 35.9203 103.916 37.4285 103.808ZM49.534 83.0977C49.2946 83.1147 49.086 83.0573 48.9082 82.9256C48.7526 82.7682 48.6663 82.5699 48.6493 82.3305L48.5115 80.3914C48.4944 80.152 48.5518 79.9434 48.6835 79.7656C48.8392 79.5861 49.0367 79.4878 49.2761 79.4708L51.5384 79.31C51.7778 79.2929 51.9872 79.3623 52.1667 79.5179C52.3462 79.6736 52.4445 79.8711 52.4615 80.1105L52.5994 82.0496C52.6164 82.289 52.5471 82.4985 52.3914 82.678C52.234 82.8335 52.0356 82.9198 51.7963 82.9368L49.534 83.0977ZM51.3966 105.233C51.1572 105.25 50.9486 105.193 50.7708 105.061C50.6152 104.904 50.5289 104.706 50.5119 104.466L49.3017 87.4451C49.2847 87.2057 49.3429 87.0091 49.4763 86.8552C49.632 86.6757 49.8295 86.5775 50.0689 86.5604L51.7925 86.4379C52.0319 86.4209 52.2294 86.491 52.385 86.6484C52.5628 86.7801 52.6602 86.9657 52.6772 87.2051L53.8874 104.226C53.9044 104.466 53.8351 104.675 53.6794 104.854C53.546 105.008 53.3596 105.094 53.1202 105.111L51.3966 105.233ZM60.1293 104.612C59.8899 104.629 59.6813 104.572 59.5035 104.44C59.3479 104.283 59.2617 104.085 59.2446 103.845L57.5493 80.0014C57.5323 79.762 57.5905 79.5654 57.7239 79.4115C57.8796 79.232 58.0771 79.1338 58.3165 79.1168L60.0042 78.9968C60.2436 78.9797 60.4411 79.0499 60.5967 79.2073C60.7744 79.339 60.8719 79.5246 60.8889 79.764L62.5842 103.608C62.6012 103.847 62.5319 104.057 62.3762 104.236C62.2428 104.39 62.0564 104.475 61.817 104.492L60.1293 104.612ZM75.494 103.881C73.0282 104.056 70.9996 103.443 69.4081 102.04C67.8388 100.612 66.8888 98.5858 66.5579 95.9627L66.4352 94.7443L66.3868 93.5568C66.3706 90.9594 67.0381 88.8427 68.3895 87.2067C69.7648 85.5691 71.6614 84.6643 74.0793 84.4924C76.7366 84.3034 78.8559 85.0069 80.437 86.6028C82.0165 88.1747 82.9084 90.3971 83.1126 93.2698L83.156 93.8803C83.173 94.1197 83.1037 94.3291 82.9481 94.5086C82.8146 94.6624 82.6282 94.7479 82.3888 94.7649L69.9642 95.6483L69.9872 95.9715C70.1696 97.5225 70.7309 98.8179 71.671 99.8579C72.6334 100.872 73.8328 101.328 75.2691 101.226C76.3704 101.148 77.2528 100.869 77.9164 100.388C78.6022 99.8823 79.0957 99.3781 79.3968 98.8755C79.5918 98.5729 79.7355 98.3942 79.8279 98.3395C79.9425 98.2592 80.1434 98.2088 80.4307 98.1884L82.1903 98.0633C82.4057 98.048 82.5895 98.0951 82.7417 98.2045C82.8938 98.314 82.9775 98.4765 82.9929 98.692C83.0303 99.2186 82.7403 99.8768 82.1227 100.667C81.5291 101.455 80.6534 102.167 79.4956 102.802C78.36 103.412 77.0261 103.772 75.494 103.881ZM79.6272 92.471L79.6195 92.3633C79.5021 90.7114 78.9519 89.4032 77.969 88.4384C77.0083 87.4481 75.7739 87.0065 74.2657 87.1137C72.7575 87.221 71.598 87.8328 70.7871 88.9491C69.9985 90.0398 69.6629 91.411 69.7804 93.0628L69.788 93.1706L79.6272 92.471ZM88.919 102.565C88.6796 102.582 88.471 102.525 88.2932 102.393C88.1377 102.236 88.0514 102.038 88.0344 101.798L86.8267 84.8131C86.8097 84.5737 86.8671 84.3651 86.9988 84.1873C87.1544 84.0078 87.352 83.9096 87.5914 83.8925L89.2432 83.7751C89.4826 83.7581 89.692 83.8274 89.8715 83.9831C90.051 84.1387 90.1493 84.3362 90.1663 84.5756L90.2786 86.1557C91.1444 84.458 92.7623 83.5249 95.1323 83.3564L96.5328 83.2568C96.7722 83.2398 96.9697 83.3099 97.1252 83.4673C97.303 83.599 97.4004 83.7846 97.4174 84.024L97.5221 85.4963C97.5391 85.7357 97.469 85.9331 97.3116 86.0887C97.1782 86.2425 96.9918 86.328 96.7524 86.345L94.5978 86.4982C93.3051 86.5901 92.3149 87.0455 91.6272 87.8643C90.9378 88.6592 90.6391 89.703 90.731 90.9958L91.4817 101.553C91.4987 101.793 91.4294 102.002 91.2737 102.181C91.1164 102.337 90.918 102.423 90.6786 102.44L88.919 102.565ZM103.081 108.416C102.842 108.433 102.633 108.363 102.453 108.208C102.299 108.074 102.214 107.888 102.197 107.649L100.501 83.8047C100.484 83.5653 100.543 83.3687 100.676 83.2148C100.832 83.0354 101.029 82.9371 101.269 82.9201L102.92 82.8026C103.16 82.7856 103.357 82.8558 103.513 83.0131C103.691 83.1449 103.788 83.3304 103.805 83.5698L103.917 85.1498C105.127 83.2112 107.024 82.1499 109.61 81.9661C112.124 81.7874 114.059 82.4437 115.416 83.9352C116.797 85.425 117.624 87.4114 117.897 89.8943C117.94 90.1559 117.981 90.5621 118.02 91.1127C118.059 91.6633 118.076 92.0711 118.071 92.3361C118.15 94.8087 117.613 96.8921 116.458 98.5863C115.301 100.256 113.478 101.18 110.989 101.357C108.499 101.534 106.496 100.774 104.98 99.0775L105.572 107.409C105.589 107.648 105.531 107.845 105.398 107.998C105.266 108.176 105.08 108.274 104.841 108.291L103.081 108.416ZM110.028 98.5021C111.727 98.3812 112.923 97.7669 113.614 96.6591C114.329 95.5496 114.661 94.1305 114.611 92.4017C114.618 92.1606 114.605 91.8126 114.573 91.3578C114.251 86.8332 112.414 84.6901 109.063 84.9284C107.411 85.0458 106.205 85.6849 105.446 86.8457C104.708 87.9809 104.357 89.3051 104.393 90.8184L104.454 92.1855L104.589 93.5834C104.738 94.9924 105.28 96.193 106.217 97.1851C107.153 98.1771 108.424 98.6161 110.028 98.5021ZM123.988 100.072C123.748 100.089 123.54 100.032 123.362 99.8999C123.206 99.7426 123.12 99.5442 123.103 99.3048L121.408 75.461C121.391 75.2216 121.449 75.025 121.582 74.8711C121.738 74.6916 121.935 74.5934 122.175 74.5763L123.863 74.4563C124.102 74.4393 124.299 74.5095 124.455 74.6669C124.633 74.7986 124.73 74.9841 124.747 75.2235L126.443 99.0673C126.46 99.3067 126.39 99.5162 126.235 99.6957C126.101 99.8495 125.915 99.935 125.675 99.952L123.988 100.072ZM137.09 99.5013C135.917 99.5847 134.811 99.4227 133.771 99.0154C132.732 98.6081 131.884 98.0188 131.227 97.2474C130.593 96.4504 130.24 95.5491 130.169 94.5437C130.057 92.9637 130.611 91.625 131.832 90.5276C133.076 89.4046 134.8 88.6083 137.004 88.1388L142.301 87.0043L142.227 85.9629C142.053 83.5211 140.566 82.3997 137.765 82.5989C136.712 82.6738 135.866 82.9625 135.228 83.465C134.588 83.9435 134.122 84.494 133.83 85.1163C133.773 85.3369 133.688 85.4993 133.576 85.6036C133.487 85.7061 133.346 85.7642 133.155 85.7778L131.611 85.8876C131.395 85.9029 131.199 85.8447 131.021 85.713C130.865 85.5556 130.78 85.3692 130.765 85.1538C130.748 84.5775 130.965 83.9124 131.417 83.1585C131.891 82.3789 132.647 81.6875 133.687 81.0842C134.725 80.457 136.034 80.0873 137.614 79.9749C140.296 79.7843 142.268 80.2817 143.531 81.4671C144.793 82.6285 145.49 84.1429 145.623 86.0102L146.45 97.6448C146.467 97.8842 146.398 98.0936 146.242 98.2731C146.109 98.427 145.922 98.5124 145.683 98.5294L144.031 98.6469C143.791 98.6639 143.583 98.6065 143.405 98.4748C143.25 98.3175 143.163 98.1191 143.146 97.8797L143.036 96.3356C142.564 97.1391 141.844 97.8399 140.876 98.4381C139.908 99.0363 138.646 99.3907 137.09 99.5013ZM137.653 96.7545C139.209 96.6438 140.442 96.0509 141.352 94.9756C142.284 93.8747 142.682 92.3667 142.546 90.4516L142.474 89.4461L138.352 90.3527C136.67 90.713 135.418 91.211 134.597 91.8468C133.774 92.4587 133.393 93.1956 133.455 94.0574C133.523 95.015 133.971 95.729 134.798 96.1995C135.624 96.6461 136.575 96.8311 137.653 96.7545ZM158.785 97.5978C155.003 97.8668 152.962 95.8946 152.662 91.6812L151.988 82.2011L149.187 82.4003C148.948 82.4173 148.739 82.3599 148.561 82.2282C148.406 82.0709 148.32 81.8725 148.302 81.6331L148.216 80.4122C148.199 80.1728 148.257 79.9761 148.39 79.8223C148.546 79.6428 148.743 79.5445 148.983 79.5275L151.784 79.3284L151.357 73.3315C151.34 73.0921 151.399 72.8955 151.532 72.7416C151.688 72.5622 151.885 72.4639 152.125 72.4469L153.812 72.3269C154.052 72.3099 154.249 72.38 154.405 72.5374C154.583 72.6691 154.68 72.8547 154.697 73.0941L155.123 79.0909L159.576 78.7743C159.816 78.7573 160.013 78.8275 160.169 78.9848C160.346 79.1166 160.444 79.3021 160.461 79.5415L160.548 80.7624C160.565 81.0018 160.495 81.2113 160.34 81.3908C160.206 81.5446 160.02 81.6301 159.78 81.6471L155.328 81.9637L155.984 91.1924C156.069 92.3894 156.337 93.2846 156.788 93.8781C157.238 94.4476 157.929 94.6992 158.863 94.6328L161.054 94.4771C161.293 94.4601 161.49 94.5302 161.646 94.6876C161.824 94.8193 161.921 95.0049 161.938 95.2443L162.03 96.537C162.047 96.7764 161.978 96.9859 161.822 97.1653C161.689 97.3192 161.502 97.4046 161.263 97.4217L158.785 97.5978ZM173.017 96.9468C170.552 97.1221 168.523 96.5085 166.931 95.1058C165.362 93.6775 164.412 91.6518 164.081 89.0286L163.959 87.8103L163.91 86.6227C163.894 84.0253 164.561 81.9086 165.913 80.2727C167.288 78.635 169.185 77.7302 171.603 77.5583C174.26 77.3694 176.379 78.0728 177.96 79.6687C179.54 81.2407 180.432 83.463 180.636 86.3358L180.679 86.9462C180.696 87.1856 180.627 87.3951 180.471 87.5745C180.338 87.7284 180.152 87.8138 179.912 87.8309L167.488 88.7143L167.51 89.0374C167.693 90.5884 168.254 91.8839 169.194 92.9238C170.157 93.9381 171.356 94.3942 172.792 94.2921C173.894 94.2138 174.776 93.9345 175.44 93.4542C176.126 92.9483 176.619 92.444 176.92 91.9414C177.115 91.6388 177.259 91.4602 177.351 91.4055C177.466 91.3252 177.667 91.2748 177.954 91.2544L179.714 91.1292C179.929 91.1139 180.113 91.161 180.265 91.2705C180.417 91.38 180.501 91.5424 180.516 91.7579C180.554 92.2846 180.264 92.9428 179.646 93.7326C179.052 94.5207 178.177 95.2326 177.019 95.8683C175.883 96.4784 174.549 96.8379 173.017 96.9468ZM177.151 85.5369L177.143 85.4292C177.025 83.7774 176.475 82.4691 175.492 81.5044C174.532 80.514 173.297 80.0725 171.789 80.1797C170.281 80.2869 169.121 80.8987 168.31 82.015C167.522 83.1057 167.186 84.477 167.304 86.1288L167.311 86.2365L177.151 85.5369ZM192.106 95.5896C190.43 95.7088 188.999 95.5458 187.812 95.1009C186.648 94.6303 185.754 94.0683 185.13 93.4149C184.53 92.7598 184.214 92.2048 184.181 91.7499C184.164 91.5105 184.235 91.325 184.394 91.1934C184.576 91.0362 184.762 90.9507 184.954 90.9371L186.57 90.8222C186.809 90.8052 187.033 90.9096 187.242 91.1354C187.864 91.7648 188.524 92.2472 189.221 92.5826C189.919 92.918 190.83 93.0457 191.955 92.9657C193.2 92.8772 194.188 92.5663 194.921 92.033C195.675 91.4741 196.021 90.7637 195.96 89.9019C195.919 89.3274 195.718 88.8725 195.358 88.5372C195.019 88.1763 194.446 87.8923 193.637 87.6851C192.85 87.4523 191.679 87.2228 190.123 86.9966C188.008 86.6898 186.477 86.137 185.53 85.3381C184.607 84.5376 184.097 83.455 184 82.0905C183.935 81.1808 184.137 80.3002 184.606 79.4488C185.097 78.5718 185.839 77.8453 186.833 77.2694C187.849 76.6678 189.087 76.3152 190.547 76.2113C192.08 76.1024 193.402 76.261 194.515 76.6871C195.628 77.1133 196.473 77.6547 197.049 78.3115C197.647 78.9427 197.962 79.4857 197.995 79.9405C198.01 80.156 197.939 80.3415 197.782 80.497C197.648 80.6509 197.474 80.7355 197.258 80.7508L195.75 80.858C195.463 80.8785 195.215 80.7758 195.006 80.55C194.591 80.1224 194.231 79.7991 193.927 79.5801C193.645 79.3355 193.234 79.1362 192.693 78.9821C192.177 78.8263 191.524 78.7765 190.734 78.8327C189.585 78.9144 188.717 79.2287 188.13 79.7757C187.542 80.2988 187.276 80.9553 187.332 81.7453C187.368 82.248 187.53 82.6696 187.819 83.01C188.106 83.3264 188.631 83.6019 189.393 83.8364C190.18 84.0692 191.302 84.2901 192.761 84.4992C195.069 84.8163 196.722 85.3965 197.721 86.2398C198.741 87.0575 199.301 88.1606 199.4 89.5491C199.473 90.5785 199.24 91.5334 198.701 92.4138C198.162 93.2943 197.323 94.0156 196.184 94.5778C195.069 95.1383 193.71 95.4756 192.106 95.5896Z" fill="white"/>
<path d="M6.63147 108.2L5.92028 108.903L5.97436 108.957L6.03616 109.003L6.63147 108.2ZM4.87742 83.5299L5.63289 84.1851L5.63289 84.1851L4.87742 83.5299ZM21.2208 83.9559L20.5874 84.7297L20.5874 84.7297L21.2208 83.9559ZM22.8058 92.0358L21.9489 91.5203L21.9442 91.5282L21.9396 91.5361L22.8058 92.0358ZM20.7891 94.1281L20.2895 93.2618L18.5318 94.2756L20.4065 95.052L20.7891 94.1281ZM23.5047 96.2809L24.2985 95.6728L24.2985 95.6728L23.5047 96.2809ZM24.1307 103.563L23.2274 103.134L23.2238 103.141L23.2204 103.149L24.1307 103.563ZM18.8995 91.9165L18.1983 91.2036L18.193 91.2088L18.1878 91.2141L18.8995 91.9165ZM8.37001 85.9523L8.29909 84.9548L7.30161 85.0257L7.37253 86.0232L8.37001 85.9523ZM8.91895 93.6728L7.92147 93.7437L7.99239 94.7412L8.98988 94.6703L8.91895 93.6728ZM20.1424 103.305L19.4058 102.629L19.3965 102.639L20.1424 103.305ZM19.6955 97.0209L19.0514 97.7858L19.0625 97.7952L19.0738 97.8042L19.6955 97.0209ZM9.12321 96.5456L9.05229 95.5481L8.05481 95.619L8.12573 96.6165L9.12321 96.5456ZM9.74364 105.272L8.74616 105.342L8.81708 106.34L9.81456 106.269L9.74364 105.272ZM7.18632 107.374C7.16741 107.376 7.17005 107.373 7.18636 107.377C7.19393 107.379 7.20213 107.382 7.21012 107.386C7.21807 107.39 7.2237 107.394 7.22677 107.396L6.03616 109.003C6.42257 109.289 6.8724 109.402 7.32817 109.369L7.18632 107.374ZM7.34266 107.497C7.34535 107.499 7.34981 107.504 7.35479 107.512C7.35979 107.519 7.36397 107.527 7.3671 107.534C7.37384 107.549 7.37143 107.552 7.37009 107.534L5.37513 107.675C5.40753 108.131 5.58221 108.561 5.92028 108.903L7.34266 107.497ZM7.37009 107.534L5.70285 84.0848L3.70788 84.2266L5.37513 107.675L7.37009 107.534ZM5.70285 84.0848C5.69981 84.0421 5.70573 84.0407 5.69856 84.0668C5.69484 84.0803 5.6881 84.0993 5.67651 84.1213C5.66483 84.1435 5.65009 84.1653 5.63289 84.1851L4.12194 82.8747C3.76753 83.2834 3.67617 83.7805 3.70788 84.2266L5.70285 84.0848ZM5.63289 84.1851C5.63095 84.1873 5.61598 84.2029 5.58768 84.2169C5.55958 84.2309 5.53999 84.2327 5.54093 84.2326L5.39908 82.2376C4.89815 82.2733 4.45334 82.4926 4.12194 82.8747L5.63289 84.1851ZM5.54093 84.2326L15.3801 83.533L15.2382 81.5381L5.39908 82.2376L5.54093 84.2326ZM15.3801 83.533C17.7986 83.3611 19.4778 83.8216 20.5874 84.7297L21.8541 83.182C20.2047 81.8321 17.9428 81.3458 15.2382 81.5381L15.3801 83.533ZM20.5874 84.7297C21.728 85.6631 22.3802 86.9526 22.5045 88.7008L24.4995 88.5589C24.3412 86.3331 23.4727 84.5066 21.8541 83.182L20.5874 84.7297ZM22.5045 88.7008C22.5888 89.8855 22.3793 90.8048 21.9489 91.5203L23.6627 92.5513C24.3512 91.4067 24.6059 90.0554 24.4995 88.5589L22.5045 88.7008ZM21.9396 91.5361C21.4788 92.335 20.9249 92.8954 20.2895 93.2618L21.2887 94.9943C22.2713 94.4277 23.0618 93.5933 23.672 92.5355L21.9396 91.5361ZM20.4065 95.052C21.2661 95.408 22.0353 96.0072 22.7108 96.8891L24.2985 95.6728C23.4358 94.5467 22.3946 93.7106 21.1718 93.2042L20.4065 95.052ZM22.7108 96.8891C23.3512 97.725 23.7221 98.7186 23.8064 99.9046L25.8014 99.7628C25.6917 98.2198 25.1964 96.8448 24.2985 95.6728L22.7108 96.8891ZM23.8064 99.9046C23.8903 101.084 23.6931 102.153 23.2274 103.134L25.034 103.992C25.6565 102.681 25.9082 101.265 25.8014 99.7628L23.8064 99.9046ZM23.2204 103.149C22.7874 104.101 22.0894 104.895 21.0875 105.532L22.1602 107.22C23.4604 106.393 24.4336 105.312 25.041 103.977L23.2204 103.149ZM21.0875 105.532C20.1054 106.156 18.8609 106.544 17.3128 106.654L17.4546 108.649C19.258 108.521 20.8403 108.059 22.1602 107.22L21.0875 105.532ZM17.3128 106.654L7.18632 107.374L7.32817 109.369L17.4546 108.649L17.3128 106.654ZM15.5972 94.2005C17.2439 94.0834 18.6388 93.6043 19.6113 92.619L18.1878 91.2141C17.679 91.7296 16.825 92.1082 15.4554 92.2055L15.5972 94.2005ZM19.6008 92.6294C20.6092 91.6374 21.0166 90.334 20.9111 88.8502L18.9162 88.992C18.9877 89.9978 18.719 90.6914 18.1983 91.2036L19.6008 92.6294ZM20.9111 88.8502C20.8077 87.3951 20.2359 86.185 19.1062 85.3875L17.9527 87.0213C18.495 87.4042 18.846 88.0053 18.9162 88.992L20.9111 88.8502ZM19.1062 85.3875C18.0074 84.6117 16.558 84.3676 14.9064 84.485L15.0483 86.48C16.4609 86.3795 17.3796 86.6167 17.9527 87.0213L19.1062 85.3875ZM14.9064 84.485L8.29909 84.9548L8.44094 86.9498L15.0483 86.48L14.9064 84.485ZM7.37253 86.0232L7.92147 93.7437L9.91643 93.6019L9.3675 85.8814L7.37253 86.0232ZM8.98988 94.6703L15.5972 94.2005L15.4554 92.2055L8.84803 92.6753L8.98988 94.6703ZM16.781 105.774C18.4701 105.654 19.8887 105.09 20.8883 103.971L19.3965 102.639C18.836 103.267 17.9664 103.684 16.6391 103.779L16.781 105.774ZM20.8788 103.982C21.883 102.888 22.3186 101.54 22.2104 100.018L20.2155 100.16C20.2877 101.176 20.0096 101.971 19.4059 102.629L20.8788 103.982ZM22.2104 100.018C22.0997 98.4609 21.4837 97.1637 20.3173 96.2377L19.0738 97.8042C19.7434 98.3357 20.139 99.0838 20.2155 100.16L22.2104 100.018ZM20.3397 96.256C19.1919 95.2894 17.7078 94.9327 16.0187 95.0528L16.1605 97.0477C17.4878 96.9533 18.4077 97.2438 19.0514 97.7858L20.3397 96.256ZM16.0187 95.0528L9.05229 95.5481L9.19413 97.543L16.1605 97.0477L16.0187 95.0528ZM8.12573 96.6165L8.74616 105.342L10.7411 105.201L10.1207 96.4746L8.12573 96.6165ZM9.81456 106.269L16.781 105.774L16.6391 103.779L9.67272 104.274L9.81456 106.269ZM31.3263 104.784L30.6588 105.528L30.665 105.534L31.3263 104.784ZM28.6068 99.022L27.6112 99.1161L27.6119 99.1238L27.6128 99.1315L28.6068 99.022ZM28.4611 97.4804L27.4622 97.5281L27.4633 97.5514L27.4655 97.5745L28.4611 97.4804ZM28.3872 95.9338L27.3877 95.9655L27.388 95.9735L27.3883 95.9815L28.3872 95.9338ZM30.3026 89.8787L31.0634 90.5277L31.0685 90.5216L30.3026 89.8787ZM42.5118 89.0106L41.8445 89.7554L41.8505 89.7607L42.5118 89.0106ZM45.2646 94.7338L44.2707 94.8437L44.2735 94.8693L44.2776 94.8947L45.2646 94.7338ZM45.4842 97.822L44.4844 97.8023L44.4839 97.8282L44.4847 97.8541L45.4842 97.822ZM43.5713 103.913L42.8105 103.264L42.8052 103.27L43.5713 103.913ZM40.8814 102.119L40.1009 101.494L40.0925 101.505L40.8814 102.119ZM42.0241 97.8875L41.0245 97.8588L41.0237 97.8887L41.0246 97.9185L42.0241 97.8875ZM41.8301 95.1584L40.8362 95.2691L40.8395 95.2988L40.8446 95.3282L41.8301 95.1584ZM40.1001 91.131L39.406 91.851L39.416 91.8604L40.1001 91.131ZM31.8473 95.8682L30.8482 95.9125L30.8483 95.9129L31.8473 95.8682ZM31.9084 97.2353L30.9094 97.28L30.9106 97.3063L30.9131 97.3325L31.9084 97.2353ZM32.0413 98.5973L31.046 98.6945L31.0461 98.6948L32.0413 98.5973ZM33.7354 102.627L34.4195 101.898L34.4195 101.898L33.7354 102.627ZM37.5541 105.576C35.1135 105.749 33.3024 105.193 31.9876 104.033L30.665 105.534C32.4818 107.135 34.8699 107.772 37.696 107.571L37.5541 105.576ZM31.9937 104.039C30.6695 102.852 29.8504 101.177 29.6008 98.9124L27.6128 99.1315C27.9053 101.785 28.8992 103.951 30.6588 105.528L31.9937 104.039ZM29.6023 98.9279L29.4566 97.3863L27.4655 97.5745L27.6112 99.1161L29.6023 98.9279ZM29.4599 97.4327L29.3861 95.8861L27.3883 95.9815L27.4622 97.5281L29.4599 97.4327ZM29.3867 95.902C29.3153 93.6562 29.8976 91.8942 31.0634 90.5277L29.5418 89.2297C27.998 91.0393 27.3034 93.3141 27.3877 95.9655L29.3867 95.902ZM31.0685 90.5216C32.2071 89.1651 33.9081 88.3511 36.3172 88.1798L36.1754 86.1849C33.3657 86.3846 31.1042 87.3682 29.5366 89.2358L31.0685 90.5216ZM36.3172 88.1798C38.7263 88.0085 40.5254 88.5736 41.8445 89.7554L43.179 88.2658C41.363 86.6388 38.9851 85.9851 36.1754 86.1849L36.3172 88.1798ZM41.8505 89.7607C43.1979 90.9485 44.0236 92.6104 44.2707 94.8437L46.2585 94.6238C45.9668 91.9871 44.9574 89.8335 43.1731 88.2605L41.8505 89.7607ZM44.2776 94.8947C44.3118 95.1045 44.3579 95.5738 44.4128 96.3462L46.4078 96.2044C46.3538 95.4447 46.3027 94.8863 46.2516 94.5728L44.2776 94.8947ZM44.4128 96.3462C44.4677 97.1187 44.4885 97.5898 44.4844 97.8023L46.484 97.8416C46.4902 97.5241 46.4618 96.9641 46.4078 96.2044L44.4128 96.3462ZM44.4847 97.8541C44.5578 100.127 43.9746 101.899 42.8106 103.264L44.3321 104.562C45.8776 102.75 46.5697 100.462 46.4837 97.7898L44.4847 97.8541ZM42.8052 103.27C41.6932 104.596 39.9956 105.402 37.5541 105.576L37.696 107.571C40.5212 107.37 42.7878 106.403 44.3375 104.556L42.8052 103.27ZM37.4994 104.806C39.2374 104.682 40.6721 104.015 41.6702 102.734L40.0925 101.505C39.5031 102.261 38.6359 102.72 37.3575 102.811L37.4994 104.806ZM41.6618 102.744C42.6761 101.479 43.0841 99.8054 43.0236 97.8565L41.0246 97.9185C41.0758 99.5708 40.722 100.719 40.1009 101.494L41.6618 102.744ZM43.0237 97.9162C43.0323 97.6179 43.0077 97.1142 42.9605 96.4495L40.9655 96.5913C41.0136 97.2672 41.0298 97.6749 41.0245 97.8588L43.0237 97.9162ZM42.9605 96.4495C42.9132 95.7848 42.8662 95.2827 42.8155 94.9886L40.8446 95.3282C40.8758 95.5095 40.9175 95.9155 40.9655 96.5913L42.9605 96.4495ZM42.8239 95.0477C42.608 93.1099 41.9674 91.5113 40.7842 90.4016L39.416 91.8604C40.1405 92.5399 40.6532 93.6262 40.8362 95.2691L42.8239 95.0477ZM40.7941 90.411C39.6247 89.2839 38.11 88.8263 36.372 88.9499L36.5138 90.9448C37.7922 90.8539 38.7156 91.1854 39.4061 91.851L40.7941 90.411ZM36.372 88.9499C34.6334 89.0735 33.1934 89.741 32.1737 91.0138L33.7345 92.2643C34.3502 91.4959 35.2361 91.0357 36.5138 90.9448L36.372 88.9499ZM32.1737 91.0138C31.1555 92.2846 30.7618 93.9628 30.8482 95.9125L32.8463 95.8239C32.7732 94.1759 33.1174 93.0346 33.7345 92.2643L32.1737 91.0138ZM30.8483 95.9129L30.9094 97.28L32.9074 97.1907L32.8463 95.8235L30.8483 95.9129ZM30.9131 97.3325L31.046 98.6945L33.0366 98.5002L32.9037 97.1382L30.9131 97.3325ZM31.0461 98.6948C31.2363 100.637 31.8635 102.243 33.0513 103.357L34.4195 101.898C33.6995 101.223 33.1974 100.142 33.0365 98.4998L31.0461 98.6948ZM33.0513 103.357C34.2408 104.472 35.7608 104.929 37.4994 104.806L37.3575 102.811C36.0798 102.902 35.1376 102.571 34.4195 101.898L33.0513 103.357ZM48.9082 82.9256L48.197 83.6286L48.2511 83.6833L48.3129 83.7291L48.9082 82.9256ZM48.6835 79.7656L47.928 79.1104L47.9029 79.1394L47.88 79.1703L48.6835 79.7656ZM52.1667 79.5179L51.5115 80.2734L51.5115 80.2734L52.1667 79.5179ZM52.3914 82.678L53.0944 83.3891L53.1217 83.3621L53.1469 83.3331L52.3914 82.678ZM50.7708 105.061L50.0596 105.764L50.1137 105.819L50.1755 105.865L50.7708 105.061ZM49.4763 86.8552L50.2318 87.5104L50.2318 87.5104L49.4763 86.8552ZM52.385 86.6484L51.6738 87.3514L51.7279 87.4061L51.7897 87.4519L52.385 86.6484ZM53.6794 104.854L54.4349 105.51L54.4349 105.51L53.6794 104.854ZM49.463 82.1002C49.4441 82.1015 49.4468 82.0987 49.4631 82.1032C49.4706 82.1053 49.4788 82.1083 49.4868 82.1122C49.4948 82.1161 49.5004 82.1198 49.5035 82.1221L48.3129 83.7291C48.6993 84.0154 49.1491 84.1276 49.6049 84.0951L49.463 82.1002ZM49.6194 82.2226C49.6221 82.2253 49.6265 82.2304 49.6315 82.2377C49.6365 82.2451 49.6407 82.2527 49.6438 82.2599C49.6506 82.2754 49.6482 82.2785 49.6468 82.2596L47.6518 82.4014C47.6842 82.8572 47.8589 83.2866 48.197 83.6286L49.6194 82.2226ZM49.6468 82.2596L49.5089 80.3204L47.514 80.4623L47.6518 82.4014L49.6468 82.2596ZM49.5089 80.3204C49.5076 80.3015 49.5104 80.3042 49.5059 80.3205C49.5038 80.3281 49.5008 80.3363 49.4969 80.3442C49.493 80.3522 49.4893 80.3578 49.487 80.3609L47.88 79.1703C47.5937 79.5567 47.4816 80.0065 47.514 80.4623L49.5089 80.3204ZM49.439 80.4208C49.437 80.423 49.4221 80.4385 49.3938 80.4526C49.3657 80.4666 49.3461 80.4684 49.347 80.4683L49.2052 78.4733C48.7042 78.509 48.2594 78.7283 47.928 79.1104L49.439 80.4208ZM49.347 80.4683L51.6093 80.3074L51.4675 78.3125L49.2052 78.4733L49.347 80.4683ZM51.6093 80.3074C51.6102 80.3074 51.5906 80.3084 51.5608 80.2985C51.5308 80.2886 51.5138 80.2754 51.5115 80.2734L52.8219 78.7625C52.4398 78.4311 51.9684 78.2769 51.4675 78.3125L51.6093 80.3074ZM51.5115 80.2734C51.5093 80.2715 51.4938 80.2565 51.4797 80.2282C51.4657 80.2001 51.4639 80.1805 51.464 80.1814L53.459 80.0396C53.4233 79.5387 53.204 79.0939 52.8219 78.7625L51.5115 80.2734ZM51.464 80.1814L51.6019 82.1205L53.5968 81.9787L53.459 80.0396L51.464 80.1814ZM51.6019 82.1205C51.6019 82.1215 51.6009 82.1018 51.6108 82.072C51.6207 82.042 51.634 82.025 51.6359 82.0228L53.1469 83.3331C53.4783 82.951 53.6325 82.4796 53.5968 81.9787L51.6019 82.1205ZM51.6884 81.9668C51.6911 81.9641 51.6962 81.9596 51.7035 81.9546C51.7108 81.9496 51.7185 81.9455 51.7257 81.9423C51.7412 81.9356 51.7442 81.938 51.7253 81.9393L51.8672 83.9343C52.3229 83.9019 52.7524 83.7272 53.0944 83.3891L51.6884 81.9668ZM51.7253 81.9393L49.463 82.1002L49.6049 84.0951L51.8672 83.9343L51.7253 81.9393ZM51.3256 104.236C51.3067 104.237 51.3094 104.234 51.3257 104.239C51.3333 104.241 51.3415 104.244 51.3494 104.248C51.3574 104.252 51.363 104.255 51.3661 104.258L50.1755 105.865C50.5619 106.151 51.0117 106.263 51.4675 106.231L51.3256 104.236ZM51.482 104.358C51.4847 104.361 51.4891 104.366 51.4941 104.373C51.4991 104.381 51.5033 104.388 51.5064 104.396C51.5132 104.411 51.5108 104.414 51.5094 104.395L49.5144 104.537C49.5469 104.993 49.7215 105.422 50.0596 105.764L51.482 104.358ZM51.5094 104.395L50.2992 87.3742L48.3042 87.516L49.5144 104.537L51.5094 104.395ZM50.2992 87.3742C50.2978 87.3541 50.3017 87.3675 50.2915 87.4019C50.2803 87.4395 50.2593 87.4787 50.2318 87.5104L48.7208 86.2C48.3829 86.5897 48.272 87.0629 48.3042 87.516L50.2992 87.3742ZM50.2318 87.5104C50.2298 87.5126 50.2149 87.5282 50.1866 87.5422C50.1585 87.5562 50.1389 87.558 50.1398 87.5579L49.998 85.563C49.4971 85.5986 49.0522 85.8179 48.7208 86.2L50.2318 87.5104ZM50.1398 87.5579L51.8635 87.4354L51.7216 85.4404L49.998 85.563L50.1398 87.5579ZM51.8635 87.4354C51.8654 87.4352 51.8342 87.4374 51.7854 87.42C51.7343 87.4019 51.6958 87.3737 51.6738 87.3514L53.0962 85.9454C52.7165 85.5613 52.2243 85.4047 51.7216 85.4404L51.8635 87.4354ZM51.7897 87.4519C51.7645 87.4333 51.7311 87.3991 51.7059 87.3512C51.6819 87.3053 51.6796 87.274 51.6797 87.276L53.6747 87.1342C53.6389 86.6315 53.4142 86.1664 52.9803 85.8449L51.7897 87.4519ZM51.6797 87.276L52.8899 104.297L54.8849 104.155L53.6747 87.1342L51.6797 87.276ZM52.8899 104.297C52.89 104.298 52.889 104.278 52.8988 104.249C52.9088 104.219 52.922 104.202 52.924 104.199L54.4349 105.51C54.7663 105.127 54.9205 104.656 54.8849 104.155L52.8899 104.297ZM52.924 104.199C52.9515 104.168 52.9873 104.141 53.0229 104.125C53.0556 104.11 53.0694 104.112 53.0493 104.113L53.1911 106.108C53.6442 106.076 54.097 105.899 54.4349 105.51L52.924 104.199ZM53.0493 104.113L51.3256 104.236L51.4675 106.231L53.1911 106.108L53.0493 104.113ZM59.5035 104.44L58.7923 105.143L58.8464 105.198L58.9082 105.244L59.5035 104.44ZM57.7239 79.4115L58.4794 80.0667L58.4794 80.0667L57.7239 79.4115ZM60.5967 79.2073L59.8855 79.9103L59.9395 79.965L60.0014 80.0108L60.5967 79.2073ZM62.3762 104.236L63.1317 104.891L63.1317 104.891L62.3762 104.236ZM60.0583 103.615C60.0394 103.616 60.0421 103.613 60.0584 103.618C60.066 103.62 60.0742 103.623 60.0821 103.627C60.0901 103.631 60.0957 103.635 60.0988 103.637L58.9082 105.244C59.2946 105.53 59.7444 105.642 60.2002 105.61L60.0583 103.615ZM60.2147 103.737C60.2174 103.74 60.2218 103.745 60.2268 103.752C60.2318 103.76 60.236 103.767 60.2391 103.775C60.2459 103.79 60.2435 103.793 60.2421 103.774L58.2471 103.916C58.2796 104.372 58.4542 104.801 58.7923 105.143L60.2147 103.737ZM60.2421 103.774L58.5468 79.9305L56.5518 80.0723L58.2471 103.916L60.2421 103.774ZM58.5468 79.9305C58.5454 79.9104 58.5493 79.9238 58.5391 79.9582C58.5279 79.9958 58.5069 80.035 58.4794 80.0667L56.9684 78.7564C56.6305 79.146 56.5196 79.6192 56.5518 80.0723L58.5468 79.9305ZM58.4794 80.0667C58.4774 80.069 58.4625 80.0845 58.4342 80.0986C58.4061 80.1125 58.3865 80.1143 58.3874 80.1142L58.2456 78.1193C57.7446 78.1549 57.2998 78.3742 56.9684 78.7564L58.4794 80.0667ZM58.3874 80.1142L60.0752 79.9942L59.9333 77.9993L58.2456 78.1193L58.3874 80.1142ZM60.0752 79.9942C60.0771 79.9941 60.0459 79.9962 59.9971 79.9789C59.946 79.9608 59.9075 79.9325 59.8855 79.9103L61.3078 78.5043C60.9282 78.1202 60.436 77.9635 59.9333 77.9993L60.0752 79.9942ZM60.0014 80.0108C59.9762 79.9921 59.9428 79.958 59.9176 79.91C59.8936 79.8642 59.8913 79.8329 59.8914 79.8349L61.8864 79.693C61.8506 79.1903 61.6259 78.7253 61.192 78.4038L60.0014 80.0108ZM59.8914 79.8349L61.5867 103.679L63.5817 103.537L61.8864 79.693L59.8914 79.8349ZM61.5867 103.679C61.5868 103.68 61.5858 103.66 61.5956 103.63C61.6056 103.6 61.6188 103.583 61.6208 103.581L63.1317 104.891C63.4631 104.509 63.6173 104.038 63.5817 103.537L61.5867 103.679ZM61.6208 103.581C61.6482 103.549 61.6841 103.523 61.7197 103.506C61.7524 103.492 61.7662 103.493 61.7461 103.495L61.8879 105.49C62.341 105.458 62.7938 105.281 63.1317 104.891L61.6208 103.581ZM61.7461 103.495L60.0583 103.615L60.2002 105.61L61.8879 105.49L61.7461 103.495ZM69.4081 102.04L68.735 102.779L68.7409 102.785L68.7469 102.79L69.4081 102.04ZM66.5579 95.9627L65.5629 96.0629L65.5642 96.0754L65.5658 96.0878L66.5579 95.9627ZM66.4352 94.7443L65.436 94.785L65.4372 94.8148L65.4402 94.8445L66.4352 94.7443ZM66.3868 93.5568L65.3869 93.563L65.387 93.5802L65.3877 93.5974L66.3868 93.5568ZM68.3895 87.2067L67.6237 86.5636L67.6185 86.5699L68.3895 87.2067ZM80.437 86.6028L79.7266 87.3066L79.7316 87.3116L80.437 86.6028ZM82.9481 94.5086L83.7035 95.1638L83.7035 95.1638L82.9481 94.5086ZM69.9642 95.6483L69.8933 94.6508L68.8958 94.7218L68.9667 95.7192L69.9642 95.6483ZM69.9872 95.9715L68.9897 96.0424L68.9913 96.0654L68.994 96.0883L69.9872 95.9715ZM71.671 99.8579L70.9292 100.528L70.9373 100.537L70.9456 100.546L71.671 99.8579ZM77.9164 100.388L78.5027 101.198L78.51 101.193L77.9164 100.388ZM79.3968 98.8755L78.5563 98.3337L78.5474 98.3475L78.539 98.3615L79.3968 98.8755ZM79.8279 98.3395L80.3374 99.2L80.3705 99.1804L80.4019 99.1584L79.8279 98.3395ZM82.7417 98.2045L82.1576 99.0162L82.1576 99.0162L82.7417 98.2045ZM82.1227 100.667L81.3349 100.051L81.3294 100.058L81.324 100.065L82.1227 100.667ZM79.4956 102.802L79.9688 103.683L79.9769 103.679L79.4956 102.802ZM79.6272 92.471L79.6981 93.4685L80.6956 93.3975L80.6247 92.4001L79.6272 92.471ZM77.969 88.4384L77.2512 89.1347L77.2598 89.1435L77.2685 89.1521L77.969 88.4384ZM70.7871 88.9491L69.9781 88.3614L69.9768 88.3631L70.7871 88.9491ZM69.788 93.1706L68.7905 93.2415L68.8615 94.239L69.8589 94.168L69.788 93.1706ZM75.4231 102.883C73.1768 103.043 71.4264 102.486 70.0693 101.29L68.7469 102.79C70.5728 104.399 72.8797 105.069 75.5649 104.878L75.4231 102.883ZM70.0812 101.3C68.7282 100.069 67.8587 98.2845 67.55 95.8375L65.5658 96.0878C65.9189 98.8872 66.9495 101.154 68.735 102.779L70.0812 101.3ZM67.5529 95.8625L67.4302 94.6441L65.4402 94.8445L65.5629 96.0629L67.5529 95.8625ZM67.4344 94.7036L67.386 93.5161L65.3877 93.5974L65.436 94.785L67.4344 94.7036ZM67.3868 93.5505C67.3717 91.1332 67.9899 89.2607 69.1605 87.8436L67.6185 86.5699C66.0864 88.4247 65.3695 90.7855 65.3869 93.563L67.3868 93.5505ZM69.1553 87.8498C70.3326 86.4479 71.963 85.6454 74.1503 85.4898L74.0084 83.4949C71.3599 83.6832 69.1971 84.6902 67.6237 86.5636L69.1553 87.8498ZM74.1503 85.4898C76.5763 85.3173 78.3892 85.9567 79.7267 87.3066L81.1474 85.8989C79.3225 84.057 76.897 83.2895 74.0084 83.4949L74.1503 85.4898ZM79.7316 87.3116C81.0948 88.6682 81.9229 90.6368 82.1151 93.3407L84.1101 93.1989C83.8938 90.1573 82.9382 87.6812 81.1424 85.894L79.7316 87.3116ZM82.1151 93.3407L82.1585 93.9512L84.1535 93.8093L84.1101 93.1989L82.1151 93.3407ZM82.1585 93.9512C82.1586 93.9521 82.1576 93.9325 82.1674 93.9027C82.1774 93.8727 82.1906 93.8557 82.1926 93.8534L83.7035 95.1638C84.0349 94.7816 84.1891 94.3103 84.1535 93.8093L82.1585 93.9512ZM82.1926 93.8534C82.2201 93.8217 82.2559 93.7953 82.2915 93.779C82.3242 93.764 82.338 93.766 82.3179 93.7674L82.4597 95.7624C82.9129 95.7302 83.3656 95.5535 83.7035 95.1638L82.1926 93.8534ZM82.3179 93.7674L69.8933 94.6508L70.0351 96.6458L82.4597 95.7624L82.3179 93.7674ZM68.9667 95.7192L68.9897 96.0424L70.9846 95.9006L70.9617 95.5774L68.9667 95.7192ZM68.994 96.0883C69.1978 97.8209 69.8342 99.3171 70.9292 100.528L72.4128 99.1872C71.6277 98.3187 71.1414 97.224 70.9803 95.8547L68.994 96.0883ZM70.9456 100.546C72.1208 101.785 73.6157 102.346 75.3401 102.224L75.1982 100.229C74.0499 100.31 73.146 99.9595 72.3965 99.1696L70.9456 100.546ZM75.3401 102.224C76.5645 102.137 77.6442 101.82 78.5027 101.198L77.3301 99.5782C76.8613 99.9174 76.1762 100.159 75.1982 100.229L75.3401 102.224ZM78.51 101.193C79.258 100.641 79.8621 100.045 80.2547 99.3894L78.539 98.3615C78.3294 98.7114 77.9465 99.1234 77.3228 99.5835L78.51 101.193ZM80.2374 99.4172C80.3253 99.2808 80.3888 99.1926 80.4301 99.1413C80.4505 99.1159 80.4575 99.1096 80.452 99.115C80.4488 99.1182 80.4388 99.1278 80.4224 99.1412C80.4066 99.1541 80.378 99.1759 80.3374 99.2L79.3184 97.4791C79.1064 97.6046 78.9529 97.7867 78.8717 97.8878C78.7692 98.0151 78.6634 98.1675 78.5563 98.3337L80.2374 99.4172ZM80.4019 99.1584C80.3594 99.1881 80.3265 99.203 80.3127 99.2088C80.2985 99.2147 80.2954 99.2146 80.3077 99.2115C80.3196 99.2085 80.3414 99.2039 80.375 99.199C80.4083 99.1941 80.4502 99.1895 80.5016 99.1859L80.3598 97.1909C80.0461 97.2132 79.6063 97.2736 79.2539 97.5207L80.4019 99.1584ZM80.5016 99.1859L82.2612 99.0608L82.1193 97.0658L80.3598 97.1909L80.5016 99.1859ZM82.2612 99.0608C82.2763 99.0597 82.2671 99.0624 82.2415 99.0558C82.2142 99.0488 82.184 99.0352 82.1576 99.0162L83.3257 97.3929C82.9553 97.1263 82.5306 97.0366 82.1193 97.0658L82.2612 99.0608ZM82.1576 99.0162C82.109 98.9812 82.062 98.9293 82.0297 98.8666C81.9993 98.8077 81.9956 98.7661 81.9954 98.7629L83.9903 98.621C83.9576 98.1599 83.757 97.7032 83.3257 97.3928L82.1576 99.0162ZM81.9954 98.7629C82.0051 98.8998 81.9203 99.3021 81.3349 100.051L82.9105 101.283C83.5602 100.452 84.0555 99.5375 83.9903 98.621L81.9954 98.7629ZM81.324 100.065C80.8392 100.709 80.0879 101.336 79.0143 101.926L79.9769 103.679C81.2189 102.997 82.219 102.201 82.9215 101.268L81.324 100.065ZM79.0223 101.921C78.0326 102.453 76.8409 102.783 75.4231 102.883L75.5649 104.878C77.2113 104.761 78.6874 104.372 79.9688 103.683L79.0223 101.921ZM80.6247 92.4001L80.617 92.2923L78.622 92.4342L78.6297 92.5419L80.6247 92.4001ZM80.617 92.2923C80.4859 90.4489 79.8602 88.8935 78.6695 87.7248L77.2685 89.1521C78.0436 89.9128 78.5182 90.9739 78.622 92.4342L80.617 92.2923ZM78.6868 87.7422C77.4993 86.5179 75.9655 85.9904 74.1948 86.1163L74.3367 88.1112C75.5823 88.0227 76.5174 88.3782 77.2512 89.1347L78.6868 87.7422ZM74.1948 86.1163C72.4241 86.2422 70.9804 86.9814 69.9781 88.3614L71.5962 89.5368C72.2156 88.6841 73.091 88.1998 74.3367 88.1112L74.1948 86.1163ZM69.9768 88.3631C69.0211 89.6849 68.6527 91.3036 68.7829 93.1338L70.7778 92.9919C70.6731 91.5184 70.976 90.3946 71.5975 89.535L69.9768 88.3631ZM68.7829 93.1338L68.7905 93.2415L70.7855 93.0996L70.7778 92.9919L68.7829 93.1338ZM69.8589 94.168L79.6981 93.4685L79.5563 91.4735L69.7171 92.1731L69.8589 94.168ZM88.2932 102.393L87.5821 103.096L87.6361 103.151L87.6979 103.197L88.2932 102.393ZM86.9988 84.1873L86.2433 83.5321L86.2181 83.5612L86.1953 83.592L86.9988 84.1873ZM89.8715 83.9831L89.2163 84.7385L89.2163 84.7385L89.8715 83.9831ZM90.2786 86.1557L89.2812 86.2266L89.5361 89.8127L91.1695 86.61L90.2786 86.1557ZM97.1252 83.4673L96.414 84.1703L96.4681 84.225L96.5299 84.2708L97.1252 83.4673ZM97.3116 86.0887L96.6086 85.3775L96.5813 85.4045L96.5561 85.4335L97.3116 86.0887ZM91.6272 87.8643L92.3827 88.5195L92.3879 88.5135L92.393 88.5074L91.6272 87.8643ZM91.2737 102.181L91.9767 102.893L92.004 102.866L92.0292 102.837L91.2737 102.181ZM88.8481 101.568C88.8292 101.569 88.8318 101.566 88.8481 101.571C88.8557 101.573 88.8639 101.576 88.8719 101.58C88.8799 101.584 88.8855 101.588 88.8886 101.59L87.6979 103.197C88.0843 103.483 88.5342 103.595 88.9899 103.563L88.8481 101.568ZM89.0044 101.69C89.0071 101.693 89.0116 101.698 89.0166 101.705C89.0216 101.713 89.0257 101.72 89.0289 101.728C89.0356 101.743 89.0332 101.746 89.0319 101.727L87.0369 101.869C87.0693 102.325 87.244 102.754 87.5821 103.096L89.0044 101.69ZM89.0319 101.727L87.8242 84.7422L85.8292 84.884L87.0369 101.869L89.0319 101.727ZM87.8242 84.7422C87.8229 84.7233 87.8257 84.7259 87.8212 84.7422C87.8191 84.7498 87.8161 84.758 87.8121 84.766C87.8083 84.7739 87.8046 84.7795 87.8023 84.7826L86.1953 83.592C85.909 83.9784 85.7968 84.4282 85.8292 84.884L87.8242 84.7422ZM87.7543 84.8425C87.7523 84.8447 87.7373 84.8603 87.709 84.8743C87.6809 84.8883 87.6614 84.8901 87.6623 84.89L87.5204 82.8951C87.0195 82.9307 86.5747 83.15 86.2433 83.5321L87.7543 84.8425ZM87.6623 84.89L89.3141 84.7726L89.1723 82.7776L87.5204 82.8951L87.6623 84.89ZM89.3141 84.7726C89.315 84.7725 89.2954 84.7735 89.2656 84.7637C89.2356 84.7537 89.2186 84.7405 89.2163 84.7385L90.5267 83.2276C90.1446 82.8962 89.6732 82.742 89.1723 82.7776L89.3141 84.7726ZM89.2163 84.7385C89.2141 84.7366 89.1986 84.7216 89.1845 84.6933C89.1705 84.6652 89.1687 84.6456 89.1688 84.6466L91.1638 84.5047C91.1282 84.0038 90.9088 83.559 90.5267 83.2276L89.2163 84.7385ZM89.1688 84.6466L89.2812 86.2266L91.2761 86.0847L91.1638 84.5047L89.1688 84.6466ZM91.1695 86.61C91.8353 85.3043 93.0831 84.5046 95.2032 84.3539L95.0614 82.3589C92.4415 82.5452 90.4535 83.6116 89.3878 85.7013L91.1695 86.61ZM95.2032 84.3539L96.6037 84.2543L96.4619 82.2593L95.0614 82.3589L95.2032 84.3539ZM96.6037 84.2543C96.6057 84.2541 96.5744 84.2563 96.5256 84.2389C96.4746 84.2208 96.436 84.1926 96.414 84.1703L97.8364 82.7643C97.4567 82.3802 96.9646 82.2236 96.4619 82.2593L96.6037 84.2543ZM96.5299 84.2708C96.5047 84.2522 96.4714 84.218 96.4462 84.1701C96.4221 84.1242 96.4198 84.0929 96.4199 84.0949L98.4149 83.9531C98.3792 83.4504 98.1544 82.9853 97.7205 82.6638L96.5299 84.2708ZM96.4199 84.0949L96.5246 85.5672L98.5196 85.4253L98.4149 83.9531L96.4199 84.0949ZM96.5246 85.5672C96.5248 85.5692 96.5226 85.5379 96.54 85.4891C96.5581 85.4381 96.5863 85.3995 96.6086 85.3775L98.0146 86.7999C98.3987 86.4202 98.5553 85.928 98.5196 85.4253L96.5246 85.5672ZM96.5561 85.4335C96.5836 85.4018 96.6194 85.3754 96.6551 85.3591C96.6877 85.3441 96.7015 85.3461 96.6814 85.3475L96.8233 87.3425C97.2764 87.3103 97.7291 87.1336 98.0671 86.7439L96.5561 85.4335ZM96.6814 85.3475L94.5269 85.5007L94.6687 87.4957L96.8233 87.3425L96.6814 85.3475ZM94.5269 85.5007C93.0255 85.6075 91.7592 86.1522 90.8614 87.2212L92.393 88.5074C92.8706 87.9387 93.5846 87.5728 94.6687 87.4957L94.5269 85.5007ZM90.8717 87.2091C89.9701 88.2488 89.6275 89.5745 89.7336 91.0667L91.7285 90.9248C91.6508 89.8316 91.9056 89.0696 92.3827 88.5195L90.8717 87.2091ZM89.7336 91.0667L90.4842 101.624L92.4792 101.482L91.7285 90.9248L89.7336 91.0667ZM90.4842 101.624C90.4843 101.625 90.4832 101.605 90.4931 101.576C90.503 101.546 90.5163 101.529 90.5182 101.526L92.0292 102.837C92.3606 102.454 92.5148 101.983 92.4792 101.482L90.4842 101.624ZM90.5707 101.47C90.5734 101.468 90.5785 101.463 90.5858 101.458C90.5932 101.453 90.6009 101.449 90.6081 101.446C90.6236 101.439 90.6266 101.441 90.6077 101.443L90.7495 103.438C91.2053 103.405 91.6347 103.231 91.9767 102.893L90.5707 101.47ZM90.6077 101.443L88.8481 101.568L88.9899 103.563L90.7495 103.438L90.6077 101.443ZM102.453 108.208L101.798 108.963L101.798 108.963L102.453 108.208ZM100.676 83.2148L101.432 83.87L101.432 83.87L100.676 83.2148ZM103.513 83.0131L102.802 83.7161L102.856 83.7708L102.918 83.8166L103.513 83.0131ZM103.917 85.1498L102.92 85.2208L103.138 88.2882L104.766 85.6792L103.917 85.1498ZM115.416 83.9352L114.677 84.6083L114.683 84.6151L115.416 83.9352ZM117.897 89.8943L116.903 90.0035L116.906 90.0295L116.91 90.0552L117.897 89.8943ZM118.071 92.3361L117.071 92.3165L117.07 92.3424L117.071 92.3683L118.071 92.3361ZM116.458 98.5863L117.28 99.1555L117.284 99.1495L116.458 98.5863ZM104.98 99.0775L105.726 98.4112L103.775 96.2281L103.982 99.1485L104.98 99.0775ZM105.398 107.998L104.642 107.343L104.617 107.372L104.594 107.403L105.398 107.998ZM113.614 96.6591L112.774 96.1173L112.77 96.1235L112.766 96.1298L113.614 96.6591ZM114.611 92.4017L113.611 92.373L113.61 92.402L113.611 92.431L114.611 92.4017ZM105.446 86.8457L104.609 86.2982L104.607 86.301L105.446 86.8457ZM104.393 90.8184L103.393 90.8418L103.393 90.8524L103.394 90.8631L104.393 90.8184ZM104.454 92.1855L103.455 92.2302L103.456 92.2561L103.458 92.282L104.454 92.1855ZM104.589 93.5834L103.594 93.6799L103.595 93.6881L104.589 93.5834ZM106.217 97.1851L106.944 96.4985L106.944 96.4985L106.217 97.1851ZM103.01 107.418C103.01 107.418 103.029 107.417 103.059 107.427C103.089 107.437 103.106 107.45 103.108 107.452L101.798 108.963C102.18 109.295 102.651 109.449 103.152 109.413L103.01 107.418ZM103.108 107.452C103.14 107.48 103.166 107.516 103.183 107.551C103.198 107.584 103.196 107.598 103.194 107.578L101.199 107.719C101.231 108.173 101.408 108.625 101.798 108.963L103.108 107.452ZM103.194 107.578L101.499 83.7338L99.5039 83.8756L101.199 107.719L103.194 107.578ZM101.499 83.7338C101.497 83.7137 101.501 83.7271 101.491 83.7615C101.48 83.7991 101.459 83.8383 101.432 83.87L99.9206 82.5597C99.5826 82.9494 99.4717 83.4225 99.5039 83.8756L101.499 83.7338ZM101.432 83.87C101.43 83.8723 101.415 83.8878 101.386 83.9019C101.358 83.9159 101.339 83.9176 101.34 83.9176L101.198 81.9226C100.697 81.9582 100.252 82.1775 99.9205 82.5597L101.432 83.87ZM101.34 83.9176L102.991 83.8001L102.85 81.8051L101.198 81.9226L101.34 83.9176ZM102.991 83.8001C102.993 83.8 102.962 83.8021 102.913 83.7848C102.862 83.7666 102.824 83.7384 102.802 83.7161L104.224 82.3101C103.844 81.9261 103.352 81.7694 102.85 81.8051L102.991 83.8001ZM102.918 83.8166C102.892 83.798 102.859 83.7638 102.834 83.7159C102.81 83.67 102.807 83.6388 102.808 83.6407L104.803 83.4989C104.767 82.9962 104.542 82.5311 104.108 82.2096L102.918 83.8166ZM102.808 83.6407L102.92 85.2208L104.915 85.0789L104.803 83.4989L102.808 83.6407ZM104.766 85.6792C105.781 84.0513 107.365 83.1282 109.681 82.9636L109.539 80.9686C106.684 81.1716 104.472 82.371 103.069 84.6205L104.766 85.6792ZM109.681 82.9636C111.973 82.8006 113.576 83.3991 114.677 84.6083L116.156 83.2622C114.542 81.4884 112.274 80.7741 109.539 80.9686L109.681 82.9636ZM114.683 84.6151C115.887 85.9144 116.648 87.684 116.903 90.0035L118.891 89.7851C118.6 87.1388 117.707 84.9357 116.15 83.2554L114.683 84.6151ZM116.91 90.0552C116.945 90.2697 116.984 90.6382 117.022 91.1836L119.017 91.0417C118.978 90.4859 118.934 90.0421 118.884 89.7334L116.91 90.0552ZM117.022 91.1836C117.061 91.729 117.075 92.0992 117.071 92.3165L119.071 92.3558C119.077 92.043 119.057 91.5976 119.017 91.0417L117.022 91.1836ZM117.071 92.3683C117.145 94.6739 116.644 96.5377 115.632 98.023L117.284 99.1495C118.581 97.2465 119.155 94.9436 119.07 92.304L117.071 92.3683ZM115.636 98.017C114.691 99.3813 113.181 100.199 110.918 100.36L111.06 102.355C113.776 102.162 115.912 101.132 117.28 99.1555L115.636 98.017ZM110.918 100.36C108.702 100.517 107.014 99.8526 105.726 98.4112L104.234 99.7439C105.979 101.696 108.295 102.551 111.06 102.355L110.918 100.36ZM103.982 99.1485L104.575 107.479L106.57 107.338L105.977 99.0066L103.982 99.1485ZM104.575 107.479C104.576 107.5 104.572 107.486 104.582 107.452C104.594 107.414 104.615 107.375 104.642 107.343L106.153 108.654C106.491 108.264 106.602 107.791 106.57 107.338L104.575 107.479ZM104.594 107.403C104.613 107.378 104.647 107.345 104.695 107.319C104.741 107.295 104.772 107.293 104.77 107.293L104.912 109.288C105.415 109.252 105.88 109.028 106.201 108.594L104.594 107.403ZM104.77 107.293L103.01 107.418L103.152 109.413L104.912 109.288L104.77 107.293ZM110.099 99.4996C112.011 99.3636 113.552 98.6474 114.463 97.1884L112.766 96.1298C112.294 96.8864 111.444 97.3988 109.957 97.5046L110.099 99.4996ZM114.455 97.2009C115.309 95.8758 115.665 94.2412 115.61 92.3724L113.611 92.431C113.658 94.0197 113.35 95.2233 112.774 96.1173L114.455 97.2009ZM115.61 92.4304C115.619 92.1387 115.603 91.7512 115.57 91.2869L113.575 91.4287C113.607 91.874 113.617 92.1825 113.611 92.373L115.61 92.4304ZM115.57 91.2869C115.402 88.9306 114.833 87.0128 113.713 85.7063C112.548 84.3467 110.916 83.7941 108.992 83.9309L109.134 85.9258C110.561 85.8243 111.523 86.2242 112.194 87.0077C112.911 87.8443 113.421 89.2604 113.575 91.4287L115.57 91.2869ZM108.992 83.9309C107.096 84.0657 105.573 84.824 104.609 86.2982L106.282 87.3933C106.837 86.5459 107.726 86.026 109.134 85.9258L108.992 83.9309ZM104.607 86.301C103.747 87.6246 103.353 89.152 103.393 90.8418L105.392 90.795C105.361 89.4582 105.669 88.3371 106.284 87.3904L104.607 86.301ZM103.394 90.8631L103.455 92.2302L105.453 92.1409L105.392 90.7737L103.394 90.8631ZM103.458 92.282L103.594 93.6799L105.585 93.487L105.449 92.089L103.458 92.282ZM103.595 93.6881C103.765 95.3061 104.396 96.7137 105.49 97.8716L106.944 96.4985C106.164 95.6723 105.71 94.6787 105.584 93.4787L103.595 93.6881ZM105.49 97.8716C106.67 99.1217 108.255 99.6307 110.099 99.4996L109.957 97.5046C108.593 97.6016 107.637 97.2326 106.944 96.4985L105.49 97.8716ZM123.362 99.8999L122.651 100.603L122.705 100.658L122.767 100.703L123.362 99.8999ZM121.582 74.8711L122.338 75.5263L122.338 75.5263L121.582 74.8711ZM124.455 74.6669L123.744 75.3699L123.798 75.4246L123.86 75.4704L124.455 74.6669ZM126.235 99.6957L126.99 100.351L126.99 100.351L126.235 99.6957ZM123.917 99.0745C123.898 99.0758 123.9 99.073 123.917 99.0775C123.924 99.0796 123.932 99.0826 123.94 99.0866C123.948 99.0904 123.954 99.0942 123.957 99.0964L122.767 100.703C123.153 100.99 123.603 101.102 124.059 101.069L123.917 99.0745ZM124.073 99.1969C124.076 99.1997 124.08 99.2047 124.085 99.212C124.09 99.2194 124.094 99.2271 124.097 99.2343C124.104 99.2498 124.102 99.2528 124.1 99.2339L122.105 99.3757C122.138 99.8315 122.313 100.261 122.651 100.603L124.073 99.1969ZM124.1 99.2339L122.405 75.3901L120.41 75.5319L122.105 99.3757L124.1 99.2339ZM122.405 75.3901C122.404 75.37 122.408 75.3834 122.397 75.4178C122.386 75.4554 122.365 75.4946 122.338 75.5263L120.827 74.2159C120.489 74.6056 120.378 75.0788 120.41 75.5319L122.405 75.3901ZM122.338 75.5263C122.336 75.5285 122.321 75.5441 122.292 75.5582C122.264 75.5721 122.245 75.5739 122.246 75.5738L122.104 73.5789C121.603 73.6145 121.158 73.8338 120.827 74.2159L122.338 75.5263ZM122.246 75.5738L123.933 75.4538L123.792 73.4589L122.104 73.5789L122.246 75.5738ZM123.933 75.4538C123.935 75.4537 123.904 75.4558 123.855 75.4385C123.804 75.4204 123.766 75.3921 123.744 75.3699L125.166 73.9639C124.787 73.5798 124.294 73.4231 123.792 73.4589L123.933 75.4538ZM123.86 75.4704C123.835 75.4517 123.801 75.4176 123.776 75.3696C123.752 75.3237 123.75 75.2925 123.75 75.2945L125.745 75.1526C125.709 74.6499 125.484 74.1848 125.05 73.8634L123.86 75.4704ZM123.75 75.2945L125.445 99.1383L127.44 98.9964L125.745 75.1526L123.75 75.2945ZM125.445 99.1383C125.445 99.1392 125.444 99.1196 125.454 99.0898C125.464 99.0598 125.477 99.0427 125.479 99.0405L126.99 100.351C127.321 99.9687 127.476 99.4973 127.44 98.9964L125.445 99.1383ZM125.479 99.0405C125.507 99.0088 125.542 98.9824 125.578 98.9661C125.611 98.9511 125.624 98.9531 125.604 98.9545L125.746 100.949C126.199 100.917 126.652 100.741 126.99 100.351L125.479 99.0405ZM125.604 98.9545L123.917 99.0745L124.059 101.069L125.746 100.949L125.604 98.9545ZM133.771 99.0154L134.136 98.0844L134.136 98.0844L133.771 99.0154ZM131.227 97.2474L130.445 97.87L130.455 97.8829L130.466 97.8954L131.227 97.2474ZM131.832 90.5276L132.501 91.2714L132.503 91.2697L131.832 90.5276ZM137.004 88.1388L137.212 89.1168L137.213 89.1166L137.004 88.1388ZM142.301 87.0043L142.51 87.9821L143.36 87.8001L143.298 86.9333L142.301 87.0043ZM135.228 83.465L135.827 84.2657L135.837 84.2582L135.847 84.2505L135.228 83.465ZM133.83 85.1163L132.925 84.6908L132.884 84.7765L132.861 84.8682L133.83 85.1163ZM133.576 85.6036L132.897 84.869L132.856 84.9065L132.82 84.9484L133.576 85.6036ZM131.021 85.713L130.31 86.416L130.364 86.4707L130.426 86.5165L131.021 85.713ZM130.765 85.1538L129.765 85.1831L129.766 85.2039L129.767 85.2247L130.765 85.1538ZM131.417 83.1585L130.562 82.639L130.559 82.6446L131.417 83.1585ZM133.687 81.0842L134.189 81.9492L134.197 81.9448L134.204 81.9402L133.687 81.0842ZM143.531 81.4671L142.847 82.1963L142.854 82.2027L143.531 81.4671ZM146.242 98.2731L146.997 98.9283L146.997 98.9283L146.242 98.2731ZM143.405 98.4748L142.694 99.1778L142.748 99.2325L142.81 99.2783L143.405 98.4748ZM143.036 96.3356L144.034 96.2647L143.806 93.0531L142.174 95.8289L143.036 96.3356ZM140.876 98.4381L140.35 97.5874L140.35 97.5874L140.876 98.4381ZM141.352 94.9756L140.589 94.3294L140.588 94.3296L141.352 94.9756ZM142.474 89.4461L143.472 89.3752L143.39 88.2209L142.26 88.4694L142.474 89.4461ZM138.352 90.3527L138.562 91.3306L138.567 91.3294L138.352 90.3527ZM134.597 91.8468L135.194 92.6492L135.201 92.6434L135.209 92.6374L134.597 91.8468ZM134.798 96.1995L134.304 97.0688L134.313 97.0741L134.322 97.0791L134.798 96.1995ZM137.019 98.5038C135.986 98.5772 135.03 98.4345 134.136 98.0844L133.406 99.9465C134.592 100.411 135.848 100.592 137.161 100.499L137.019 98.5038ZM134.136 98.0844C133.234 97.731 132.528 97.2326 131.989 96.5994L130.466 97.8954C131.24 98.805 132.229 99.4853 133.406 99.9465L134.136 98.0844ZM132.01 96.6248C131.5 95.984 131.223 95.2746 131.166 94.4727L129.171 94.6146C129.257 95.8237 129.686 96.9167 130.445 97.87L132.01 96.6248ZM131.166 94.4727C131.077 93.2134 131.499 92.1713 132.501 91.2714L131.164 89.7838C129.723 91.0786 129.036 92.7139 129.171 94.6146L131.166 94.4727ZM132.503 91.2697C133.578 90.2984 135.123 89.5619 137.212 89.1168L136.796 87.1607C134.477 87.6547 132.574 88.5107 131.162 89.7854L132.503 91.2697ZM137.213 89.1166L142.51 87.9821L142.091 86.0264L136.795 87.161L137.213 89.1166ZM143.298 86.9333L143.224 85.892L141.229 86.0338L141.303 87.0752L143.298 86.9333ZM143.224 85.892C143.124 84.479 142.625 83.2774 141.583 82.492C140.569 81.7276 139.217 81.4931 137.694 81.6014L137.836 83.5963C139.114 83.5055 139.906 83.732 140.379 84.089C140.825 84.425 141.156 85.005 141.229 86.0338L143.224 85.892ZM137.694 81.6014C136.5 81.6862 135.446 82.0207 134.609 82.6794L135.847 84.2505C136.286 83.9043 136.923 83.6613 137.836 83.5963L137.694 81.6014ZM134.629 82.6643C133.879 83.225 133.297 83.8979 132.925 84.6908L134.735 85.5418C134.947 85.0901 135.297 84.6621 135.827 84.2657L134.629 82.6643ZM132.861 84.8682C132.854 84.8939 132.848 84.9125 132.844 84.9249C132.839 84.9373 132.836 84.9422 132.837 84.9412C132.838 84.9394 132.854 84.9083 132.897 84.869L134.254 86.3382C134.561 86.0544 134.716 85.6872 134.798 85.3645L132.861 84.8682ZM132.82 84.9484C132.966 84.7799 133.122 84.7777 133.084 84.7803L133.226 86.7753C133.571 86.7508 134.007 86.6323 134.331 86.2587L132.82 84.9484ZM133.084 84.7803L131.54 84.8901L131.682 86.8851L133.226 86.7753L133.084 84.7803ZM131.54 84.8901C131.545 84.8897 131.563 84.8899 131.585 84.8966C131.608 84.9032 131.619 84.9113 131.616 84.9095L130.426 86.5165C130.79 86.7865 131.222 86.9178 131.682 86.8851L131.54 84.8901ZM131.732 85.01C131.73 85.0079 131.739 85.0173 131.749 85.0385C131.759 85.0601 131.762 85.0774 131.762 85.0829L129.767 85.2247C129.8 85.6846 129.991 86.0934 130.31 86.416L131.732 85.01ZM131.764 85.1244C131.755 84.8146 131.873 84.3423 132.274 83.6724L130.559 82.6446C130.057 83.4826 129.74 84.3405 129.765 85.1831L131.764 85.1244ZM132.271 83.678C132.635 83.0794 133.249 82.4943 134.189 81.9492L133.185 80.2193C132.045 80.8807 131.146 81.6784 130.562 82.6391L132.271 83.678ZM134.204 81.9402C135.072 81.4159 136.217 81.0768 137.685 80.9724L137.544 78.9774C135.852 79.0977 134.379 79.4982 133.17 80.2283L134.204 81.9402ZM137.685 80.9724C140.24 80.7908 141.876 81.2853 142.847 82.1963L144.215 80.7378C142.66 79.278 140.352 78.7778 137.544 78.9774L137.685 80.9724ZM142.854 82.2027C143.91 83.175 144.509 84.4427 144.625 86.0811L146.62 85.9392C146.471 83.8431 145.676 82.082 144.209 80.7314L142.854 82.2027ZM144.625 86.0811L145.452 97.7157L147.447 97.5739L146.62 85.9392L144.625 86.0811ZM145.452 97.7157C145.453 97.7166 145.451 97.697 145.461 97.6672C145.471 97.6372 145.485 97.6202 145.486 97.6179L146.997 98.9283C147.329 98.5462 147.483 98.0748 147.447 97.5739L145.452 97.7157ZM145.486 97.6179C145.514 97.5863 145.55 97.5598 145.585 97.5435C145.618 97.5286 145.632 97.5305 145.612 97.5319L145.754 99.5269C146.207 99.4947 146.659 99.318 146.997 98.9283L145.486 97.6179ZM145.612 97.5319L143.96 97.6494L144.102 99.6444L145.754 99.5269L145.612 97.5319ZM143.96 97.6494C143.941 97.6507 143.944 97.6479 143.96 97.6524C143.968 97.6545 143.976 97.6575 143.984 97.6614C143.992 97.6653 143.997 97.669 144 97.6713L142.81 99.2783C143.196 99.5646 143.646 99.6768 144.102 99.6444L143.96 97.6494ZM144.116 97.7718C144.119 97.7745 144.123 97.7796 144.128 97.7869C144.133 97.7943 144.138 97.802 144.141 97.8092C144.147 97.8247 144.145 97.8277 144.144 97.8088L142.149 97.9506C142.181 98.4064 142.356 98.8358 142.694 99.1778L144.116 97.7718ZM144.144 97.8088L144.034 96.2647L142.039 96.4065L142.149 97.9506L144.144 97.8088ZM142.174 95.8289C141.801 96.4643 141.21 97.0561 140.35 97.5874L141.402 99.2888C142.478 98.6237 143.328 97.8139 143.899 96.8422L142.174 95.8289ZM140.35 97.5874C139.561 98.075 138.471 98.4006 137.019 98.5038L137.161 100.499C138.821 100.381 140.255 99.9975 141.402 99.2888L140.35 97.5874ZM137.724 97.752C139.517 97.6245 141.011 96.9257 142.115 95.6217L140.588 94.3296C139.872 95.1761 138.901 95.6632 137.582 95.757L137.724 97.752ZM142.115 95.6219C143.266 94.2628 143.692 92.4675 143.543 90.3806L141.548 90.5225C141.672 92.266 141.302 93.4867 140.589 94.3294L142.115 95.6219ZM143.543 90.3806L143.472 89.3752L141.477 89.517L141.548 90.5225L143.543 90.3806ZM142.26 88.4694L138.138 89.3761L138.567 91.3294L142.689 90.4227L142.26 88.4694ZM138.143 89.3749C136.398 89.7484 134.977 90.2873 133.985 91.0562L135.209 92.6374C135.858 92.1348 136.941 91.6775 138.562 91.3306L138.143 89.3749ZM134 91.0444C132.963 91.8158 132.367 92.8583 132.457 94.1283L134.452 93.9865C134.42 93.5329 134.585 93.1016 135.194 92.6492L134 91.0444ZM132.457 94.1283C132.549 95.416 133.183 96.4314 134.304 97.0688L135.292 95.3302C134.759 95.0267 134.497 94.614 134.452 93.9865L132.457 94.1283ZM134.322 97.0791C135.339 97.6292 136.486 97.84 137.724 97.752L137.582 95.757C136.665 95.8222 135.908 95.663 135.274 95.3199L134.322 97.0791ZM151.988 82.2011L152.986 82.1302L152.915 81.1327L151.917 81.2036L151.988 82.2011ZM148.561 82.2282L147.85 82.9312L147.904 82.9859L147.966 83.0317L148.561 82.2282ZM148.39 79.8223L149.146 80.4775L149.146 80.4775L148.39 79.8223ZM151.784 79.3284L151.855 80.3259L152.852 80.2549L152.781 79.2575L151.784 79.3284ZM151.532 72.7416L152.287 73.3968L152.288 73.3968L151.532 72.7416ZM154.405 72.5374L153.694 73.2404L153.748 73.2951L153.809 73.3409L154.405 72.5374ZM155.123 79.0909L154.126 79.1618L154.197 80.1593L155.194 80.0884L155.123 79.0909ZM160.169 78.9848L159.457 79.6878L159.511 79.7426L159.573 79.7883L160.169 78.9848ZM160.34 81.3908L161.095 82.0459L161.095 82.0459L160.34 81.3908ZM155.328 81.9637L155.257 80.9662L154.259 81.0371L154.33 82.0346L155.328 81.9637ZM156.788 93.8781L155.992 94.4833L155.998 94.4905L156.003 94.4976L156.788 93.8781ZM161.646 94.6876L160.935 95.3906L160.989 95.4453L161.051 95.4911L161.646 94.6876ZM161.822 97.1653L162.578 97.8205L162.578 97.8205L161.822 97.1653ZM158.714 96.6003C157.006 96.7218 155.866 96.3298 155.112 95.6012C154.339 94.8536 153.8 93.5882 153.66 91.6103L151.665 91.7521C151.824 93.9876 152.455 95.815 153.723 97.0395C155.01 98.2832 156.782 98.7428 158.856 98.5953L158.714 96.6003ZM153.66 91.6103L152.986 82.1302L150.991 82.272L151.665 91.7521L153.66 91.6103ZM151.917 81.2036L149.116 81.4028L149.258 83.3978L152.059 83.1986L151.917 81.2036ZM149.116 81.4028C149.097 81.4041 149.1 81.4013 149.116 81.4058C149.124 81.4079 149.132 81.4109 149.14 81.4148C149.148 81.4187 149.154 81.4224 149.157 81.4247L147.966 83.0317C148.352 83.318 148.802 83.4302 149.258 83.3978L149.116 81.4028ZM149.273 81.5252C149.275 81.5279 149.28 81.533 149.285 81.5403C149.29 81.5477 149.294 81.5553 149.297 81.5626C149.304 81.5781 149.301 81.5811 149.3 81.5622L147.305 81.704C147.337 82.1598 147.512 82.5892 147.85 82.9312L149.273 81.5252ZM149.3 81.5622L149.213 80.3412L147.218 80.4831L147.305 81.704L149.3 81.5622ZM149.213 80.3412C149.212 80.3212 149.216 80.3345 149.205 80.369C149.194 80.4066 149.173 80.4458 149.146 80.4775L147.635 79.1671C147.297 79.5568 147.186 80.03 147.218 80.4831L149.213 80.3412ZM149.146 80.4775C149.144 80.4797 149.129 80.4953 149.101 80.5093C149.072 80.5233 149.053 80.5251 149.054 80.525L148.912 78.53C148.411 78.5657 147.966 78.785 147.635 79.1671L149.146 80.4775ZM149.054 80.525L151.855 80.3259L151.713 78.3309L148.912 78.53L149.054 80.525ZM152.781 79.2575L152.355 73.2606L150.36 73.4024L150.786 79.3993L152.781 79.2575ZM152.355 73.2606C152.353 73.2405 152.357 73.2539 152.347 73.2883C152.336 73.3259 152.315 73.3651 152.287 73.3968L150.777 72.0865C150.439 72.4762 150.328 72.9493 150.36 73.4024L152.355 73.2606ZM152.288 73.3968C152.286 73.3991 152.271 73.4146 152.242 73.4287C152.214 73.4427 152.195 73.4444 152.196 73.4444L152.054 71.4494C151.553 71.485 151.108 71.7043 150.777 72.0865L152.288 73.3968ZM152.196 73.4444L153.883 73.3244L153.741 71.3294L152.054 71.4494L152.196 73.4444ZM153.883 73.3244C153.885 73.3242 153.854 73.3264 153.805 73.309C153.754 73.2909 153.716 73.2627 153.694 73.2404L155.116 71.8344C154.736 71.4503 154.244 71.2936 153.741 71.3294L153.883 73.3244ZM153.809 73.3409C153.784 73.3223 153.751 73.2881 153.726 73.2401C153.702 73.1943 153.699 73.163 153.7 73.165L155.694 73.0231C155.659 72.5204 155.434 72.0554 155 71.7339L153.809 73.3409ZM153.7 73.165L154.126 79.1618L156.121 79.02L155.694 73.0231L153.7 73.165ZM155.194 80.0884L159.647 79.7718L159.505 77.7768L155.052 78.0934L155.194 80.0884ZM159.647 79.7718C159.649 79.7717 159.618 79.7738 159.569 79.7565C159.518 79.7383 159.479 79.7101 159.457 79.6878L160.88 78.2818C160.5 77.8978 160.008 77.7411 159.505 77.7768L159.647 79.7718ZM159.573 79.7883C159.548 79.7697 159.515 79.7355 159.49 79.6876C159.465 79.6417 159.463 79.6105 159.463 79.6124L161.458 79.4706C161.423 78.9679 161.198 78.5028 160.764 78.1813L159.573 79.7883ZM159.463 79.6124L159.55 80.8334L161.545 80.6915L161.458 79.4706L159.463 79.6124ZM159.55 80.8334C159.55 80.8343 159.549 80.8147 159.559 80.7849C159.569 80.7549 159.582 80.7378 159.584 80.7356L161.095 82.0459C161.426 81.6638 161.581 81.1924 161.545 80.6915L159.55 80.8334ZM159.584 80.7356C159.612 80.7039 159.647 80.6775 159.683 80.6612C159.716 80.6462 159.73 80.6482 159.709 80.6496L159.851 82.6446C160.304 82.6123 160.757 82.4356 161.095 82.0459L159.584 80.7356ZM159.709 80.6496L155.257 80.9662L155.399 82.9612L159.851 82.6446L159.709 80.6496ZM154.33 82.0346L154.986 91.2633L156.981 91.1215L156.325 81.8928L154.33 82.0346ZM154.986 91.2633C155.078 92.5466 155.372 93.6672 155.992 94.4833L157.584 93.2728C157.302 92.902 157.06 92.2321 156.981 91.1215L154.986 91.2633ZM156.003 94.4976C156.717 95.4013 157.777 95.7126 158.934 95.6303L158.792 93.6354C158.082 93.6859 157.759 93.494 157.573 93.2585L156.003 94.4976ZM158.934 95.6303L161.124 95.4746L160.983 93.4796L158.792 93.6354L158.934 95.6303ZM161.124 95.4746C161.126 95.4744 161.095 95.4766 161.046 95.4592C160.995 95.4411 160.957 95.4129 160.935 95.3906L162.357 93.9846C161.977 93.6005 161.485 93.4439 160.983 93.4796L161.124 95.4746ZM161.051 95.4911C161.025 95.4725 160.992 95.4383 160.967 95.3904C160.943 95.3445 160.941 95.3132 160.941 95.3152L162.936 95.1734C162.9 94.6707 162.675 94.2056 162.241 93.8841L161.051 95.4911ZM160.941 95.3152L161.033 96.6079L163.028 96.4661L162.936 95.1734L160.941 95.3152ZM161.033 96.6079C161.033 96.6089 161.032 96.5892 161.042 96.5594C161.051 96.5294 161.065 96.5124 161.067 96.5102L162.578 97.8205C162.909 97.4384 163.063 96.967 163.028 96.4661L161.033 96.6079ZM161.067 96.5102C161.094 96.4785 161.13 96.4521 161.166 96.4357C161.198 96.4208 161.212 96.4227 161.192 96.4242L161.334 98.4191C161.787 98.3869 162.24 98.2102 162.578 97.8205L161.067 96.5102ZM161.192 96.4242L158.714 96.6003L158.856 98.5953L161.334 98.4191L161.192 96.4242ZM166.931 95.1058L166.258 95.8453L166.264 95.8507L166.27 95.856L166.931 95.1058ZM164.081 89.0286L163.086 89.1289L163.088 89.1413L163.089 89.1538L164.081 89.0286ZM163.959 87.8103L162.959 87.851L162.961 87.8808L162.964 87.9105L163.959 87.8103ZM163.91 86.6227L162.91 86.629L162.91 86.6462L162.911 86.6634L163.91 86.6227ZM165.913 80.2727L165.147 79.6296L165.142 79.6358L165.913 80.2727ZM177.96 79.6687L177.25 80.3726L177.255 80.3775L177.96 79.6687ZM180.471 87.5745L181.227 88.2297L181.227 88.2297L180.471 87.5745ZM167.488 88.7143L167.417 87.7168L166.419 87.7877L166.49 88.7852L167.488 88.7143ZM167.51 89.0374L166.513 89.1084L166.515 89.1314L166.517 89.1543L167.51 89.0374ZM169.194 92.9238L168.453 93.5944L168.461 93.6034L168.469 93.6121L169.194 92.9238ZM175.44 93.4542L176.026 94.2643L176.033 94.259L175.44 93.4542ZM176.92 91.9414L176.08 91.3997L176.071 91.4134L176.062 91.4275L176.92 91.9414ZM177.351 91.4055L177.861 92.2659L177.894 92.2464L177.925 92.2243L177.351 91.4055ZM180.265 91.2705L179.681 92.0822L179.681 92.0822L180.265 91.2705ZM179.646 93.7326L178.858 93.1166L178.853 93.1237L178.847 93.1309L179.646 93.7326ZM177.019 95.8683L177.492 96.7493L177.5 96.7449L177.019 95.8683ZM177.151 85.5369L177.221 86.5344L178.219 86.4635L178.148 85.466L177.151 85.5369ZM175.492 81.5044L174.775 82.2006L174.783 82.2095L174.792 82.2181L175.492 81.5044ZM168.31 82.015L167.501 81.4273L167.5 81.4291L168.31 82.015ZM167.311 86.2365L166.314 86.3074L166.385 87.3049L167.382 87.234L167.311 86.2365ZM172.946 95.9493C170.7 96.109 168.95 95.5517 167.593 94.3556L166.27 95.856C168.096 97.4652 170.403 98.1352 173.088 97.9443L172.946 95.9493ZM167.605 94.3663C166.251 93.1348 165.382 91.3504 165.073 88.9035L163.089 89.1538C163.442 91.9531 164.473 94.2202 166.258 95.8453L167.605 94.3663ZM165.076 88.9284L164.953 87.7101L162.964 87.9105L163.086 89.1289L165.076 88.9284ZM164.958 87.7696L164.909 86.582L162.911 86.6634L162.959 87.851L164.958 87.7696ZM164.91 86.6165C164.895 84.1992 165.513 82.3267 166.684 80.9095L165.142 79.6358C163.61 81.4906 162.893 83.8515 162.91 86.629L164.91 86.6165ZM166.679 80.9158C167.856 79.5139 169.486 78.7113 171.674 78.5558L171.532 76.5608C168.883 76.7491 166.72 77.7562 165.147 79.6296L166.679 80.9158ZM171.674 78.5558C174.1 78.3833 175.913 79.0227 177.25 80.3726L178.671 78.9649C176.846 77.123 174.42 76.3555 171.532 76.5608L171.674 78.5558ZM177.255 80.3775C178.618 81.7342 179.446 83.7027 179.638 86.4067L181.633 86.2648C181.417 83.2233 180.462 80.7471 178.666 78.9599L177.255 80.3775ZM179.638 86.4067L179.682 87.0171L181.677 86.8753L181.633 86.2648L179.638 86.4067ZM179.682 87.0171C179.682 87.0181 179.681 86.9984 179.691 86.9686C179.701 86.9386 179.714 86.9216 179.716 86.9194L181.227 88.2297C181.558 87.8476 181.712 87.3762 181.677 86.8753L179.682 87.0171ZM179.716 86.9194C179.743 86.8877 179.779 86.8613 179.815 86.8449C179.848 86.83 179.861 86.8319 179.841 86.8334L179.983 88.8283C180.436 88.7961 180.889 88.6194 181.227 88.2297L179.716 86.9194ZM179.841 86.8334L167.417 87.7168L167.558 89.7117L179.983 88.8283L179.841 86.8334ZM166.49 88.7852L166.513 89.1084L168.508 88.9665L168.485 88.6433L166.49 88.7852ZM166.517 89.1543C166.721 90.8869 167.357 92.3831 168.453 93.5944L169.936 92.2532C169.151 91.3847 168.665 90.2899 168.504 88.9206L166.517 89.1543ZM168.469 93.6121C169.644 94.8508 171.139 95.4122 172.863 95.2896L172.722 93.2946C171.573 93.3762 170.669 93.0255 169.92 92.2355L168.469 93.6121ZM172.863 95.2896C174.088 95.2025 175.168 94.8856 176.026 94.2643L174.853 92.6441C174.385 92.9834 173.7 93.2251 172.722 93.2946L172.863 95.2896ZM176.033 94.259C176.781 93.7072 177.385 93.1107 177.778 92.4553L176.062 91.4275C175.853 91.7774 175.47 92.1894 174.846 92.6495L176.033 94.259ZM177.761 92.4832C177.849 92.3467 177.912 92.2586 177.953 92.2072C177.974 92.1819 177.981 92.1755 177.975 92.1809C177.972 92.1841 177.962 92.1938 177.946 92.2072C177.93 92.22 177.901 92.2419 177.861 92.2659L176.842 90.545C176.63 90.6705 176.476 90.8527 176.395 90.9537C176.293 91.0811 176.187 91.2335 176.08 91.3997L177.761 92.4832ZM177.925 92.2243C177.883 92.2541 177.85 92.269 177.836 92.2747C177.822 92.2806 177.819 92.2805 177.831 92.2774C177.843 92.2745 177.865 92.2698 177.898 92.2649C177.932 92.2601 177.974 92.2555 178.025 92.2518L177.883 90.2569C177.569 90.2792 177.13 90.3396 176.777 90.5866L177.925 92.2243ZM178.025 92.2518L179.785 92.1267L179.643 90.1318L177.883 90.2569L178.025 92.2518ZM179.785 92.1267C179.8 92.1257 179.79 92.1283 179.765 92.1218C179.737 92.1148 179.707 92.1012 179.681 92.0822L180.849 90.4588C180.479 90.1922 180.054 90.1025 179.643 90.1318L179.785 92.1267ZM179.681 92.0822C179.632 92.0472 179.585 91.9953 179.553 91.9326C179.523 91.8736 179.519 91.832 179.519 91.8288L181.514 91.687C181.481 91.2259 181.28 90.7691 180.849 90.4588L179.681 92.0822ZM179.519 91.8288C179.528 91.9657 179.444 92.368 178.858 93.1166L180.434 94.3486C181.084 93.5176 181.579 92.6034 181.514 91.687L179.519 91.8288ZM178.847 93.1309C178.363 93.7745 177.611 94.4023 176.538 94.9917L177.5 96.7449C178.742 96.0629 179.742 95.2668 180.445 94.3342L178.847 93.1309ZM176.546 94.9874C175.556 95.5191 174.364 95.8485 172.946 95.9493L173.088 97.9443C174.735 97.8272 176.211 97.4377 177.492 96.7492L176.546 94.9874ZM178.148 85.466L178.14 85.3583L176.145 85.5001L176.153 85.6079L178.148 85.466ZM178.14 85.3583C178.009 83.5149 177.384 81.9594 176.193 80.7907L174.792 82.2181C175.567 82.9788 176.042 84.0399 176.145 85.5001L178.14 85.3583ZM176.21 80.8081C175.023 79.5839 173.489 79.0563 171.718 79.1822L171.86 81.1772C173.106 81.0886 174.041 81.4442 174.775 82.2006L176.21 80.8081ZM171.718 79.1822C169.947 79.3081 168.504 80.0474 167.501 81.4273L169.12 82.6027C169.739 81.75 170.614 81.2657 171.86 81.1772L171.718 79.1822ZM167.5 81.4291C166.544 82.7509 166.176 84.3696 166.306 86.1997L168.301 86.0579C168.196 84.5844 168.499 83.4606 169.121 82.601L167.5 81.4291ZM166.306 86.1997L166.314 86.3074L168.309 86.1656L168.301 86.0579L166.306 86.1997ZM167.382 87.234L177.221 86.5344L177.08 84.5395L167.24 85.239L167.382 87.234ZM187.812 95.1009L187.437 96.028L187.449 96.0328L187.461 96.0372L187.812 95.1009ZM185.13 93.4149L184.392 94.0903L184.399 94.0979L184.407 94.1055L185.13 93.4149ZM184.394 91.1934L185.032 91.9639L185.041 91.9565L185.05 91.9489L184.394 91.1934ZM187.242 91.1354L186.507 91.8139L186.518 91.8263L186.53 91.8384L187.242 91.1354ZM194.921 92.033L195.509 92.8413L195.516 92.8365L194.921 92.033ZM195.358 88.5372L194.628 89.2212L194.652 89.2463L194.677 89.2697L195.358 88.5372ZM193.637 87.6851L193.353 88.644L193.371 88.6492L193.389 88.6538L193.637 87.6851ZM190.123 86.9966L190.267 86.007L190.267 86.0069L190.123 86.9966ZM185.53 85.3381L184.875 86.0937L184.885 86.1025L185.53 85.3381ZM184.606 79.4488L183.733 78.9603L183.73 78.9665L184.606 79.4488ZM186.833 77.2694L187.335 78.1346L187.343 78.1299L186.833 77.2694ZM194.515 76.6871L194.158 77.621L194.158 77.621L194.515 76.6871ZM197.049 78.3115L196.297 78.9709L196.31 78.9854L196.323 78.9995L197.049 78.3115ZM197.782 80.497L197.079 79.7859L197.051 79.8129L197.026 79.8419L197.782 80.497ZM195.006 80.55L195.741 79.8715L195.732 79.8623L195.724 79.8532L195.006 80.55ZM193.927 79.5801L193.272 80.3356L193.306 80.3653L193.343 80.3918L193.927 79.5801ZM192.693 78.9821L192.404 79.9395L192.412 79.9417L192.419 79.9438L192.693 78.9821ZM188.13 79.7757L188.794 80.5231L188.803 80.5152L188.812 80.5072L188.13 79.7757ZM187.819 83.01L187.056 83.657L187.067 83.6697L187.078 83.682L187.819 83.01ZM189.393 83.8364L189.099 84.7923L189.109 84.7952L189.393 83.8364ZM192.761 84.4992L192.619 85.4891L192.625 85.4899L192.761 84.4992ZM197.721 86.2398L197.075 87.0037L197.085 87.0121L197.095 87.0202L197.721 86.2398ZM198.701 92.4138L197.848 91.8918L197.848 91.8918L198.701 92.4138ZM196.184 94.5778L195.742 93.6811L195.735 93.6843L196.184 94.5778ZM192.035 94.5921C190.458 94.7042 189.179 94.5454 188.163 94.1645L187.461 96.0372C188.819 96.5463 190.402 96.7133 192.177 96.5871L192.035 94.5921ZM188.187 94.1737C187.106 93.7369 186.349 93.2431 185.853 92.7243L184.407 94.1055C185.159 94.8934 186.19 95.5236 187.437 96.028L188.187 94.1737ZM185.867 92.7395C185.297 92.1162 185.186 91.7771 185.179 91.679L183.184 91.8209C183.242 92.6325 183.763 93.4033 184.392 94.0903L185.867 92.7395ZM185.179 91.679C185.179 91.6752 185.182 91.7197 185.156 91.7888C185.127 91.8634 185.08 91.9244 185.032 91.9639L183.757 90.423C183.306 90.796 183.148 91.3193 183.184 91.8209L185.179 91.679ZM185.05 91.9489C185.08 91.9222 185.093 91.9175 185.087 91.9205C185.083 91.922 185.076 91.9251 185.065 91.9281C185.053 91.9311 185.039 91.9335 185.025 91.9346L184.883 89.9396C184.426 89.9721 184.043 90.1749 183.739 90.438L185.05 91.9489ZM185.025 91.9346L186.641 91.8197L186.499 89.8247L184.883 89.9396L185.025 91.9346ZM186.641 91.8197C186.616 91.8214 186.589 91.8202 186.561 91.8149C186.533 91.8097 186.511 91.8016 186.495 91.7941C186.464 91.7798 186.47 91.774 186.507 91.8139L187.976 90.4569C187.624 90.076 187.123 89.7804 186.499 89.8247L186.641 91.8197ZM186.53 91.8384C187.222 92.5378 187.973 93.0922 188.788 93.4839L189.654 91.6814C189.074 91.4022 188.506 90.9918 187.953 90.4324L186.53 91.8384ZM188.788 93.4839C189.698 93.9214 190.802 94.0502 192.026 93.9631L191.884 91.9682C190.858 92.0411 190.139 91.9146 189.654 91.6814L188.788 93.4839ZM192.026 93.9631C193.39 93.8662 194.579 93.5191 195.509 92.8413L194.332 91.2247C193.798 91.6134 193.01 91.8881 191.884 91.9682L192.026 93.9631ZM195.516 92.8365C196.516 92.0951 197.045 91.0677 196.957 89.831L194.962 89.9728C194.997 90.4598 194.833 90.8532 194.325 91.2295L195.516 92.8365ZM196.957 89.831C196.902 89.0496 196.616 88.3414 196.038 87.8048L194.677 89.2697C194.821 89.4036 194.936 89.6052 194.962 89.9728L196.957 89.831ZM196.087 87.8532C195.557 87.2879 194.765 86.9419 193.885 86.7164L193.389 88.6538C194.126 88.8427 194.481 89.0647 194.628 89.2212L196.087 87.8532ZM193.921 86.7262C193.064 86.4726 191.836 86.235 190.267 86.007L189.979 87.9862C191.523 88.2105 192.637 88.432 193.353 88.644L193.921 86.7262ZM190.267 86.0069C188.219 85.7099 186.909 85.1934 186.175 84.5738L184.885 86.1025C186.045 87.0806 187.798 87.6697 189.98 87.9862L190.267 86.0069ZM186.185 84.5827C185.487 83.9774 185.078 83.1542 184.997 82.0196L183.002 82.1614C183.116 83.7559 183.727 85.0978 184.875 86.0936L186.185 84.5827ZM184.997 82.0196C184.947 81.315 185.1 80.6253 185.482 79.9312L183.73 78.9665C183.175 79.9751 182.923 81.0466 183.002 82.1614L184.997 82.0196ZM185.479 79.9374C185.87 79.2382 186.474 78.6336 187.335 78.1346L186.332 76.4042C185.205 77.0571 184.324 77.9054 183.733 78.9603L185.479 79.9374ZM187.343 78.1299C188.197 77.6241 189.276 77.3042 190.618 77.2088L190.476 75.2138C188.898 75.3261 187.501 75.7116 186.324 76.409L187.343 78.1299ZM190.618 77.2088C192.045 77.1073 193.214 77.2599 194.158 77.621L194.873 75.7532C193.59 75.262 192.114 75.0974 190.476 75.2138L190.618 77.2088ZM194.158 77.621C195.171 78.0092 195.86 78.4726 196.297 78.9709L197.801 77.6522C197.085 76.8369 196.085 76.2173 194.873 75.7532L194.158 77.621ZM196.323 78.9995C196.887 79.5945 196.991 79.92 196.997 80.0115L198.992 79.8696C198.934 79.0514 198.407 78.2909 197.774 77.6236L196.323 78.9995ZM196.997 80.0115C196.995 79.9864 196.998 79.939 197.019 79.8837C197.04 79.829 197.068 79.7967 197.079 79.7859L198.485 81.2082C198.844 80.8532 199.029 80.3843 198.992 79.8696L196.997 80.0115ZM197.026 79.8419C197.044 79.8217 197.074 79.7958 197.114 79.7761C197.154 79.7569 197.183 79.7537 197.187 79.7533L197.329 81.7483C197.791 81.7154 198.218 81.5195 198.537 81.1522L197.026 79.8419ZM197.187 79.7533L195.679 79.8606L195.821 81.8555L197.329 81.7483L197.187 79.7533ZM195.679 79.8606C195.677 79.8607 195.683 79.8601 195.694 79.8619C195.705 79.8637 195.719 79.8672 195.731 79.8725C195.744 79.8777 195.752 79.8827 195.754 79.8846C195.756 79.8862 195.752 79.8831 195.741 79.8715L194.272 81.2285C194.67 81.6602 195.208 81.8991 195.821 81.8555L195.679 79.8606ZM195.724 79.8532C195.288 79.405 194.882 79.0357 194.511 78.7684L193.343 80.3918C193.58 80.5625 193.894 80.8398 194.289 81.2468L195.724 79.8532ZM194.582 78.8247C194.148 78.4484 193.584 78.1962 192.968 78.0204L192.419 79.9438C192.883 80.0762 193.141 80.2227 193.272 80.3356L194.582 78.8247ZM192.982 78.0247C192.308 77.8214 191.523 77.7741 190.663 77.8352L190.805 79.8302C191.525 79.779 192.046 79.8312 192.404 79.9395L192.982 78.0247ZM190.663 77.8352C189.383 77.9262 188.262 78.2859 187.448 79.0443L188.812 80.5072C189.172 80.1716 189.787 79.9026 190.805 79.8302L190.663 77.8352ZM187.466 79.0284C186.644 79.7591 186.256 80.7187 186.334 81.8162L188.329 81.6744C188.295 81.1919 188.44 80.8384 188.794 80.5231L187.466 79.0284ZM186.334 81.8162C186.383 82.5025 186.612 83.1339 187.056 83.657L188.581 82.3629C188.447 82.2053 188.352 81.9936 188.329 81.6744L186.334 81.8162ZM187.078 83.682C187.551 84.2033 188.291 84.5436 189.099 84.7922L189.687 82.8806C188.971 82.6602 188.66 82.4495 188.559 82.3379L187.078 83.682ZM189.109 84.7952C189.965 85.0486 191.144 85.2776 192.619 85.4891L192.903 83.5093C191.461 83.3026 190.394 83.0898 189.677 82.8775L189.109 84.7952ZM192.625 85.4899C194.873 85.7987 196.296 86.3454 197.075 87.0037L198.366 85.4759C197.149 84.4476 195.265 83.8339 192.897 83.5085L192.625 85.4899ZM197.095 87.0202C197.883 87.6514 198.322 88.4894 198.402 89.62L200.397 89.4782C200.28 87.8318 199.599 86.4636 198.346 85.4594L197.095 87.0202ZM198.402 89.62C198.461 90.4415 198.278 91.1891 197.848 91.8918L199.554 92.9359C200.202 91.8778 200.485 90.7155 200.397 89.4782L198.402 89.62ZM197.848 91.8918C197.428 92.5776 196.75 93.1832 195.742 93.6811L196.627 95.4745C197.896 94.848 198.896 94.011 199.554 92.9359L197.848 91.8918ZM195.735 93.6843C194.767 94.1711 193.543 94.4849 192.035 94.5921L192.177 96.5871C193.876 96.4663 195.372 96.1055 196.633 95.4713L195.735 93.6843Z" fill="black"/>
<circle cx="102.5" cy="87.5" r="86" stroke="#FF0000" stroke-width="3"/>
<line x1="155.149" y1="17.9646" x2="45.1487" y2="148.965" stroke="#FF0000" stroke-width="3"/>
</svg>
